<?xml version="1.0" standalone="no"?>
  <!DOCTYPE svg PUBLIC "-//W3C//DTD SVG 1.1//EN" "http://www.w3.org/Graphics/SVG/1.1/DTD/svg11.dtd" >
  <svg>
  <metadata>
  Created by font-carrier
  </metadata>
  <defs>
  <font id="NexaScript-SemiBold" horiz-adv-x="1883" vert-adv-y="1883" >
    <font-face
      
      font-family="Nexa Script Semi Bold"
      
      font-weight="400"
      
      font-stretch="normal"
      
      units-per-em="1000"
      
      ascent="904"
      
      descent="-296"
      
    />
      <missing-glyph />

      

      
      <glyph glyph-name="uni21" unicode="&#x21;" d="M96 206Q110 257 157.50 434.50Q205 612 221 669Q227 689 260.50 692Q294 695 323 684Q352 673 347 658Q329 603 278 441.50Q227 280 200 202Q193 183 166 179.50Q139 176 116 185Q93 194 96 206M107-10Q81-10 64 8Q47 26 49 52Q51 77 70.50 95Q90 113 115 113Q143 113 158.50 95Q174 77 172 52Q169 26 150.50 8Q132-10 107-10Z"  horiz-adv-x="378" vert-adv-y="1000"  />

      
      <glyph glyph-name="uni22" unicode="&#x22;" d="M150 524Q146 511 127 506.50Q108 502 91.50 508.50Q75 515 79 530L108 664Q115 688 150 689Q182 691 187 672Q189 666 187 660L150 524M295 524Q291 511 272 506.50Q253 502 237 508.50Q221 515 224 530L254 664Q261 688 296 689Q328 691 333 672Q335 666 333 660L295 524Z"  horiz-adv-x="385" vert-adv-y="1000"  />

      
      <glyph glyph-name="uni23" unicode="&#x23;" d="M194 84Q189 67 164.50 62Q140 57 119 64Q98 71 101 84L141 226L77 226Q58 226 62 255Q66 286 86 294Q90 296 95 296L160 296L187 392L116 392Q92 392 95.50 420.50Q99 449 118 460Q124 463 129 463L207 463L245 599Q252 623 297 622Q335 620 339 604Q340 602 339 599L301 463L385 463L423 598Q428 615 452.50 620Q477 625 498 618Q519 611 516 599L478 463L542 463Q561 463 557 434Q554 402 533 394Q528 392 524 392L458 392L432 296L503 296Q527 296 523.50 267Q520 238 500 228L490 226L412 226L372 83Q367 67 342.50 62Q318 57 296.50 64Q275 71 278 84L318 226L234 226L194 84M254 296L338 296L365 392L281 392L254 296Z"  horiz-adv-x="629" vert-adv-y="1000"  />

      
      <glyph glyph-name="uni24" unicode="&#x24;" d="M452 698L441 654Q498 635 532 594Q566 553 566 510Q567 491 544.50 479Q522 467 497 471Q472 475 469 496Q466 546 418 563Q400 492 374 380Q441 321 462 294Q502 242 501 184Q500 97 445 45Q390-7 281-4L265-65Q262-78 243.50-81.50Q225-85 209.50-77.50Q194-70 198-55Q210-11 214 3Q120 22 80.50 85.50Q41 149 61 219Q67 241 94 245Q121 249 144 237Q167 225 165 206Q161 168 180 138.50Q199 109 236 98Q263 210 288 311Q258 335 242.50 349.50Q227 364 205.50 389.50Q184 415 175 443Q166 471 167 503Q170 590 231.50 629.50Q293 669 374 664Q377 679 383 702Q386 716 404.50 720.50Q423 725 439 717.50Q455 710 452 698M354 582Q326 588 305 574Q284 560 278 533Q263 472 316 433Q321 451 334 504Q347 557 354 582M345 263Q320 154 302 85Q353 83 377.50 116.50Q402 150 392 193.50Q382 237 345 263Z"  horiz-adv-x="596" vert-adv-y="1000"  />

      
      <glyph glyph-name="uni25" unicode="&#x25;" d="M188 14Q174-6 131 5Q92 14 91 34Q90 40 94 46L453 642Q469 665 511 650Q545 639 549 619Q550 612 546 606L188 14M167 423Q113 423 84 455.50Q55 488 63 533Q70 576 108.50 606Q147 636 197 636Q248 636 279 604Q310 572 302 527Q294 484 255 453.50Q216 423 167 423M174 491Q194 491 208 503.50Q222 516 224 533Q226 546 217 556Q208 566 191 566Q174 566 160.50 556Q147 546 143 531Q138 515 146.50 503Q155 491 174 491M444 24Q393 24 362.50 56.50Q332 89 340 134Q347 176 386 206.50Q425 237 474 237Q528 237 557 205Q586 173 578 128Q572 85 533 54.50Q494 24 444 24M424 104Q424 104 428.50 99Q433 94 450 94Q467 94 480.50 104Q494 114 498 129Q504 145 495 157Q486 169 467 169Q447 169 433 156Q419 143 417 127Q415 114 424 104Z"  horiz-adv-x="650" vert-adv-y="1000"  />

      
      <glyph glyph-name="uni26" unicode="&#x26;" d="M193 542Q217 620 297 645.50Q377 671 439.50 629.50Q502 588 484 503Q473 454 425.50 410Q378 366 319 337Q352 264 417 178Q453 222 462 291Q464 306 481 310Q498 314 514.50 305.50Q531 297 531 284Q530 198 471 117Q495 86 530 48Q549 30 521 10Q490-12 461-3Q454 0 449 4Q421 31 405 50Q332-7 230-8Q135-8 89 43.50Q43 95 52 168Q59 227 98.50 279Q138 331 208 366Q169 462 193 542M294 525Q272 473 290 408Q372 453 382 521Q389 561 360 570Q331 579 307 548Q299 537 294 525M243 289Q168 246 161 169Q157 131 177 103.50Q197 76 239 75Q307 75 350 118Q300 185 243 289Z"  horiz-adv-x="592" vert-adv-y="1000"  />

      
      <glyph glyph-name="uni27" unicode="&#x27;" d="M153 524Q149 511 130 506.50Q111 502 95 508.50Q79 515 82 530L112 664Q119 688 154 689Q186 691 191 672Q193 666 191 660L153 524Z"  horiz-adv-x="220" vert-adv-y="1000"  />

      
      <glyph glyph-name="uni28" unicode="&#x28;" d="M210-158Q136-77 113 39Q90 155 111 283Q133 413 204.50 528Q276 643 365 685Q378 691 400 680.50Q422 670 432 655Q442 640 431 627Q371 578 317 488.50Q263 399 241 285Q225 205 229.50 130Q234 55 251-2.50Q268-60 294-104Q308-126 266-150Q224-174 210-158Z"  horiz-adv-x="465" vert-adv-y="1000"  />

      
      <glyph glyph-name="uni29" unicode="&#x29;" d="M91-160Q78-166 56-155.50Q34-145 23.50-130Q13-115 24-102Q86-52 140 39.50Q194 131 216 247Q235 374 219 468Q203 562 162 629Q148 651 190 675Q232 699 246 683Q320 601 343 485Q366 369 344 242Q323 112 251.50-3Q180-118 91-160Z"  horiz-adv-x="441" vert-adv-y="1000"  />

      
      <glyph glyph-name="uni2a" unicode="&#x2a;" d="M279 503Q287 494 282.50 481Q278 468 264.50 459.50Q251 451 243 459L203 489L201 436Q201 424 185 419Q169 414 154.50 418.50Q140 423 142 435L148 489L101 459Q92 451 80 460Q68 469 65.50 482Q63 495 72 503L134 542L80 579Q70 589 73.50 602Q77 615 91 623Q105 631 115 623L155 593L158 643Q158 658 173.50 663.50Q189 669 203 663Q217 657 215 643L210 593L255 623Q267 631 279.50 622.50Q292 614 293.50 600Q295 586 284 577L227 541L279 503Z"  horiz-adv-x="320" vert-adv-y="1000"  />

      
      <glyph glyph-name="uni2b" unicode="&#x2b;" d="M238 104Q235 92 211.50 88Q188 84 167.50 90.50Q147 97 151 111L190 252L97 252Q81 252 76 273Q71 294 80 314.50Q89 335 107 335L213 334L251 470Q256 486 279.50 490Q303 494 323 485.50Q343 477 339 463L303 334L397 334Q415 334 421 313.50Q427 293 418.50 272.50Q410 252 392 252L280 252L238 104Z"  horiz-adv-x="502" vert-adv-y="1000"  />

      
      <glyph glyph-name="uni2c" unicode="&#x2c;" d="M107-144Q94-152 78.50-145.50Q63-139 58.50-127Q54-115 61-106Q110-61 127-6Q110 0 99.50 15.50Q89 31 90 51Q91 77 111 94.50Q131 112 157 113Q184 113 200 95Q216 77 215 47Q214-6 183.50-59Q153-112 107-144Z"  horiz-adv-x="317" vert-adv-y="1000"  />

      
      <glyph glyph-name="uni2d" unicode="&#x2d;" d="M129 223Q113 223 109 243.50Q105 264 115 285Q125 306 143 306L333 306Q350 306 355 285Q360 264 350.50 243.50Q341 223 323 223L129 223Z"  horiz-adv-x="451" vert-adv-y="1000"  />

      
      <glyph glyph-name="uni2e" unicode="&#x2e;" d="M140 8Q140 8 130.50-1Q121-10 96-10Q71-10 54 8Q37 26 38 52Q40 77 59.50 95Q79 113 105 113Q132 113 147.50 95Q163 77 161 52Q159 26 140 8Z"  horiz-adv-x="265" vert-adv-y="1000"  />

      
      <glyph glyph-name="uni2f" unicode="&#x2f;" d="M73 29Q99 76 205.50 332.50Q312 589 355 663Q369 688 416 678Q456 670 461 651Q463 645 459 639Q414 566 310.50 315.50Q207 65 175 7Q163-13 117-9Q74-4 71 17Q70 23 73 29Z"  horiz-adv-x="485" vert-adv-y="1000"  />

      
      <glyph glyph-name="uni30" unicode="&#x30;" d="M351 664Q555 662 510 365Q495 270 458 188.50Q421 107 355 49.50Q289-8 207-8Q110-8 70 69.50Q30 147 52 296Q66 391 104 472.50Q142 554 207 609Q272 664 351 664M344 581Q305 582 268.50 527.50Q232 473 210 405.50Q188 338 177 272Q146 76 216 76Q245 76 273 105.50Q301 135 322.50 182.50Q344 230 359.50 282.50Q375 335 384 386Q418 581 344 581Z"  horiz-adv-x="545" vert-adv-y="1000"  />

      
      <glyph glyph-name="uni31" unicode="&#x31;" d="M292 646Q302 663 333.50 666.50Q365 670 390.50 661Q416 652 411 638Q341 424 245 13Q237-9 185-12Q133-15 122 5Q119 11 121 17Q204 369 255 494Q233 459 191 421Q149 383 119 370Q96 361 75.50 377Q55 393 52 413Q49 433 58 442Q214 537 292 646Z"  horiz-adv-x="432" vert-adv-y="1000"  />

      
      <glyph glyph-name="uni32" unicode="&#x32;" d="M383-5Q174 2 66-4Q42-5 28.50 13.50Q15 32 20 56.50Q25 81 46 93Q135 147 220 250.50Q305 354 330 448Q347 512 330.50 546Q314 580 274 581Q238 581 211.50 550Q185 519 188 465Q190 451 165.50 442.50Q141 434 115.50 438Q90 442 89 457Q78 552 140 607Q202 662 287 662Q379 663 427 608Q475 553 453 433Q437 344 358.50 248.50Q280 153 182 83Q272 91 401 85Q421 84 422.50 61.50Q424 39 411 17Q398-5 383-5Z"  horiz-adv-x="496" vert-adv-y="1000"  />

      
      <glyph glyph-name="uni33" unicode="&#x33;" d="M213 372Q274 372 307.50 405.50Q341 439 347 495Q355 556 311 575Q273 593 236 563Q198 533 197 473Q197 460 173 450Q149 440 124.50 443.50Q100 447 99 467Q95 583 186 636Q260 680 347 658Q433 637 462 567Q479 527 471 478Q462 423 421.50 382Q381 341 327 335Q390 323 418.50 272.50Q447 222 434 154Q414 53 319 10Q234-28 146 1Q61 29 38 105Q26 144 35 192Q37 204 49 211.50Q61 219 76 219.50Q91 220 105.50 216.50Q120 213 129 203Q138 193 136 179Q128 119 165 90.50Q202 62 247.50 82Q293 102 306 161Q319 221 299.50 256.50Q280 292 212 294Q194 295 189 315Q184 335 192 354Q200 373 213 372Z"  horiz-adv-x="495" vert-adv-y="1000"  />

      
      <glyph glyph-name="uni34" unicode="&#x34;" d="M375 646Q394 671 454 664Q502 658 506 640L506 635Q465 462 427 224Q476 224 499 222Q514 221 521 201Q528 181 521 162Q514 143 494 143Q454 145 411 143Q397 49 392 24Q389 3 342-3Q294-9 281 10Q278 15 279 21Q290 80 300 139Q153 131 76 133Q48 134 33.50 159Q19 184 37 210Q74 259 204 422Q334 585 375 646M373 499Q338 446 165 217Q178 218 229.50 219.50Q281 221 312 223Q352 418 373 499Z"  horiz-adv-x="567" vert-adv-y="1000"  />

      
      <glyph glyph-name="uni35" unicode="&#x35;" d="M430 662Q453 663 460.50 643.50Q468 624 462 602.50Q456 581 443 577Q385 563 252 573Q247 553 235.50 501Q224 449 219 430Q277 446 323 440Q369 434 396.50 411.50Q424 389 441.50 355.50Q459 322 460 281Q461 240 455 198Q438 112 372 51.50Q306-9 214-9Q111-10 65 53.50Q19 117 38 201Q42 219 68 223Q94 227 117 216.50Q140 206 137 188Q129 138 150 108Q171 78 215 77Q259 76 288 110Q317 144 328 199Q334 227 333.50 252.50Q333 278 325.50 301.50Q318 325 300.50 337.50Q283 350 253.50 353Q224 356 181 341Q167 338 147 337Q127 336 111.50 347.50Q96 359 101 381Q106 401 114.50 437.50Q123 474 133.50 524.50Q144 575 150 602Q158 641 177.50 649Q197 657 261 656Q365 656 430 662Z"  horiz-adv-x="506" vert-adv-y="1000"  />

      
      <glyph glyph-name="uni36" unicode="&#x36;" d="M223-8Q172-9 135.50 9.50Q99 28 80.50 61.50Q62 95 54.50 136Q47 177 51 225Q56 293 74.50 363.50Q93 434 126 504.50Q159 575 216.50 619.50Q274 664 346 665Q420 666 463 626Q506 586 508 528Q508 512 485 503.50Q462 495 437.50 498Q413 501 411 514Q403 552 386.50 567Q370 582 342 581Q295 580 256 519.50Q217 459 194 373Q250 434 326 436Q409 437 445.50 372.50Q482 308 467 219Q450 121 385.50 56Q321-9 223-8M226 75Q269 74 301.50 116Q334 158 346 227Q352 262 350.50 290.50Q349 319 335 337Q321 355 296 355Q254 354 222 319.50Q190 285 171 228Q156 78 226 75Z"  horiz-adv-x="541" vert-adv-y="1000"  />

      
      <glyph glyph-name="uni37" unicode="&#x37;" d="M384 661Q403 664 422.50 657.50Q442 651 451 639.50Q460 628 453 617Q432 582 405 527.50Q378 473 356 424.50Q334 376 303 304.50Q272 233 256.50 196Q241 159 213 91.50Q185 24 182 17Q178-1 146.50-6Q115-11 86.50-0.50Q58 10 62 31Q100 133 168.50 292.50Q237 452 294 559Q150 530 64 570Q50 581 52.50 602.50Q55 624 68.50 644Q82 664 92 661Q150 645 211.50 643.50Q273 642 303.50 646.50Q334 651 384 661Z"  horiz-adv-x="421" vert-adv-y="1000"  />

      
      <glyph glyph-name="uni38" unicode="&#x38;" d="M127 534Q141 627 237 657Q333 687 414.50 640Q496 593 477 498Q460 418 348 357Q475 270 460 165Q450 89 386.50 39.50Q323-10 215-9Q119-7 71 43Q23 93 30 171Q41 286 197 369Q112 447 127 534M244 522Q234 462 283 412Q352 461 362 511Q373 558 337 577Q304 593 272 571Q249 554 244 522M264 315Q220 294 190 256Q160 218 155 175Q150 135 170 105.50Q190 76 228 75Q277 75 304.50 102.50Q332 130 336 178Q338 216 318 253.50Q298 291 264 315Z"  horiz-adv-x="508" vert-adv-y="1000"  />

      
      <glyph glyph-name="uni39" unicode="&#x39;" d="M191-8Q120-9 80 26.50Q40 62 37 109Q37 124 57.50 137Q78 150 97 150Q116 150 122 139Q139 73 196 75Q246 76 286.50 134.50Q327 193 343 273Q303 219 228 219Q134 219 92 285.50Q50 352 65 440Q81 538 147 602Q213 666 312 665Q413 665 454 599.50Q495 534 488 431Q485 387 476.50 341.50Q468 296 453.50 245Q439 194 415 150Q391 106 360.50 70Q330 34 286 13Q242-8 191-8M245 302Q333 302 368 434Q385 574 310 581Q265 585 231.50 543.50Q198 502 186 432Q176 378 191 340Q206 302 245 302Z"  horiz-adv-x="536" vert-adv-y="1000"  />

      
      <glyph glyph-name="uni3a" unicode="&#x3a;" d="M185 291Q159 291 141.50 309.50Q124 328 126 354Q128 379 147 396.50Q166 414 192 415Q219 415 235.50 397Q252 379 250 353Q248 327 229 309Q210 291 185 291M136-10Q110-10 92.50 8Q75 26 77 52Q78 77 97.50 95Q117 113 143 114Q170 114 186 96Q202 78 200 52Q198 26 179.50 8Q161-10 136-10Z"  horiz-adv-x="347" vert-adv-y="1000"  />

      
      <glyph glyph-name="uni3b" unicode="&#x3b;" d="M180 291Q154 291 137 309Q120 327 121 353Q123 378 142 396Q161 414 187 414Q214 414 230.50 396Q247 378 245 353Q242 327 223.50 309Q205 291 180 291M89-144Q76-153 60.50-146.50Q45-140 40.50-127.50Q36-115 44-106Q62-90 82-62.50Q102-35 110-7Q93 0 82.50 15.50Q72 31 73 51Q74 76 93.50 93.50Q113 111 139 112Q166 113 182 95Q198 77 197 46Q196-6 165.50-59Q135-112 89-144Z"  horiz-adv-x="347" vert-adv-y="1000"  />

      
      <glyph glyph-name="uni3c" unicode="&#x3c;" d="M177 96L72 262Q43 308 88 344L265 486Q284 501 305 491Q326 481 331 461Q336 441 322 425L163 291L259 137Q267 122 251.50 103Q236 84 214.50 80Q193 76 177 96Z"  horiz-adv-x="404" vert-adv-y="1000"  />

      
      <glyph glyph-name="uni3d" unicode="&#x3d;" d="M147 325Q131 325 126 345.50Q121 366 130 387Q139 408 157 408L448 408Q466 408 472 387.50Q478 367 469 346.50Q460 326 442 326L147 325M123 177Q107 177 102 197.50Q97 218 106 239Q115 260 133 260L423 260Q441 260 447 239.50Q453 219 444.50 198.50Q436 178 418 178L123 177Z"  horiz-adv-x="557" vert-adv-y="1000"  />

      
      <glyph glyph-name="uni3e" unicode="&#x3e;" d="M218 478L323 311Q351 265 307 230L129 87Q111 72 89.50 82.50Q68 93 63 112.50Q58 132 72 148L234 284L138 437Q129 451 144.50 470Q160 489 181 493Q202 497 218 478Z"  horiz-adv-x="404" vert-adv-y="1000"  />

      
      <glyph glyph-name="uni3f" unicode="&#x3f;" d="M141 203Q142 250 162 286.50Q182 323 220 364Q225 370 256 402.50Q287 435 297 447.50Q307 460 321.50 487.50Q336 515 338 541Q346 603 293 611Q258 616 229.50 587Q201 558 194 499Q192 480 167 473.50Q142 467 118.50 476.50Q95 486 96 505Q100 604 155.50 649.50Q211 695 300 692Q374 689 418.50 648.50Q463 608 458 540Q456 511 447.50 485.50Q439 460 420 434.50Q401 409 390 396.50Q379 384 349 355.50Q319 327 312 320Q290 298 277 283Q264 268 252.50 246Q241 224 239 201Q237 185 212.50 179Q188 173 164.50 180Q141 187 141 203M200 8Q200 8 190.50-1Q181-10 156-10Q131-10 114 8Q97 26 99 52Q101 77 120.50 95Q140 113 165 113Q192 113 208 95Q224 77 222 52Q219 26 200 8Z"  horiz-adv-x="507" vert-adv-y="1000"  />

      
      <glyph glyph-name="uni40" unicode="&#x40;" d="M458 535Q585 534 669 475.50Q753 417 754 308Q756 188 680.50 107Q605 26 520 25Q484 24 459 49Q434 74 435 129Q411 86 383.50 61Q356 36 314 35Q260 34 237.50 73.50Q215 113 228.50 169.50Q242 226 282 273Q342 345 420 357Q463 364 510 354.50Q557 345 587 316Q597 306 582.50 285Q568 264 556 272Q511 305 453 301Q396 295 357 238Q334 204 324.50 157Q315 110 333 98Q358 81 399 139.50Q440 198 457 261Q460 274 481.50 275.50Q503 277 521.50 268.50Q540 260 537 249Q512 158 509 134Q506 110 511 100Q516 90 530 91Q576 92 613 151.50Q650 211 651 292Q652 370 596 412Q540 454 452 452Q339 451 256 372.50Q173 294 155 176Q146 116 157.50 69Q169 22 197-6.50Q225-35 263.50-49.50Q302-64 348.50-62Q395-60 443-43Q454-39 462-55Q470-71 468.50-90.50Q467-110 457-115Q395-143 330.50-146Q266-149 212-127.50Q158-106 117-66.50Q76-27 57 36Q38 99 48 173Q58 245 90 310Q122 375 173 425.50Q224 476 298 505.50Q372 535 458 535Z"  horiz-adv-x="829" vert-adv-y="1000"  />

      
      <glyph glyph-name="uni41" unicode="&#x41;" d="M234-9Q145-10 104 31.50Q63 73 75 145Q91 234 179.50 280.50Q268 327 386 318Q422 403 440 442.50Q458 482 490 535.50Q522 589 556 627Q599 673 655 686Q711 699 751.50 675.50Q792 652 796 602Q804 500 747 286Q850 289 895 333Q910 346 922.50 327Q935 308 926 298Q866 230 737 220Q704 87 694 19Q677-4 624-4Q571-4 557 19Q567 89 601 218Q577 220 483 229Q459 171 437 131.50Q415 92 385.50 58.50Q356 25 318.50 8.50Q281-8 234-9M617 291Q674 494 685 571Q689 597 675 601Q661 605 642 580Q587 509 513 302Q556 296 617 291M235 71Q269 72 294.50 111Q320 150 355 237Q301 239 259.50 215Q218 191 204 145Q194 119 201.50 94.50Q209 70 235 71Z"  horiz-adv-x="867" vert-adv-y="1000"  />

      
      <glyph glyph-name="uni42" unicode="&#x42;" d="M563 694Q691 693 771 635.50Q851 578 834 487Q823 430 772.50 395Q722 360 665 359Q742 349 782.50 286Q823 223 806 151Q787 74 729.50 33.50Q672-7 592-8Q484-9 397 60Q343-7 243-8Q170-10 121 18.50Q72 47 75 105Q77 160 119 190Q161 220 221.50 217.50Q282 215 338 182Q351 215 378.50 317.50Q406 420 434.50 480.50Q463 541 504 561Q529 571 560 562Q591 553 593 539Q567 516 525 390Q591 392 640.50 419Q690 446 703 495Q718 550 677.50 580.50Q637 611 557 612Q480 613 418 586Q356 559 330 511Q304 463 331 399Q327 377 300.50 359Q274 341 250 348Q182 394 185 468Q188 542 247 596Q300 644 384 669.50Q468 695 563 694M503 324Q448 151 436 124Q482 86 532.50 74Q583 62 626 88.50Q669 115 682 183Q691 235 667 269Q643 303 598 316Q558 329 503 324M249 145Q204 150 190 120Q179 95 201 79Q217 67 246 72Q287 79 311 121Q272 143 249 145Z"  horiz-adv-x="872" vert-adv-y="1000"  />

      
      <glyph glyph-name="uni43" unicode="&#x43;" d="M540 693Q625 689 665 639Q705 589 686 517Q674 470 635 436.50Q596 403 544 391Q492 379 428.50 391.50Q365 404 308 444Q270 358 272 271Q273 161 325 112Q377 63 459 72Q513 77 567 111.50Q621 146 655 214Q660 219 669.50 216.50Q679 214 687.50 205.50Q696 197 693 192Q644 92 573.50 43Q503-6 396-10Q277-14 203.50 64.50Q130 143 140 283Q151 428 233 537Q190 608 185 672Q184 683 197.50 689Q211 695 226.50 691.50Q242 688 244 678Q252 631 278 587Q392 701 540 693M519 611Q419 616 345 511Q384 483 432.50 476.50Q481 470 518.50 488.50Q556 507 564 546Q572 571 559.50 590.50Q547 610 519 611Z"  horiz-adv-x="646" vert-adv-y="1000"  />

      
      <glyph glyph-name="uni44" unicode="&#x44;" d="M539 694Q681 690 775 602Q869 514 865 355Q861 189 781 89.50Q701-10 580-8Q483-8 394 58Q336-8 236-9Q157-10 112.50 21.50Q68 53 72 108Q77 164 121.50 192Q166 220 225.50 216Q285 212 335 181Q350 218 376 309.50Q402 401 428.50 463.50Q455 526 491 556Q513 571 553 563Q593 555 592 539Q549 483 500.50 325.50Q452 168 429 126Q466 98 509.50 84Q553 70 588 75Q656 85 695 162.50Q734 240 736 355Q740 613 516 613Q456 613 402.50 583.50Q349 554 326.50 506.50Q304 459 330 400Q333 382 303.50 360.50Q274 339 246 350Q188 389 186 460Q184 531 235 586Q283 641 366 668.50Q449 696 539 694M236 146Q196 145 187 116Q178 89 202 75Q212 69 226 69Q277 67 310 121Q266 146 236 146Z"  horiz-adv-x="916" vert-adv-y="1000"  />

      
      <glyph glyph-name="uni45" unicode="&#x45;" d="M280 706Q282 670 292 646Q330 678 387.50 689.50Q445 701 496.50 691.50Q548 682 584 649.50Q620 617 618 568Q616 510 573.50 478.50Q531 447 460 449Q426 450 392 465Q358 480 337 502Q333 458 365.50 421.50Q398 385 458 377Q472 366 464.50 335.50Q457 305 439 302Q397 308 354.50 299.50Q312 291 276.50 262.50Q241 234 234 188Q227 147 247.50 119.50Q268 92 297.50 82.50Q327 73 362 72Q434 70 495 106.50Q556 143 592 214Q597 220 606 217Q615 214 623.50 205.50Q632 197 630 192Q584 92 506 42.50Q428-7 330-9Q294-10 259.50-3.50Q225 3 193 18.50Q161 34 138.50 56.50Q116 79 105 114Q94 149 100 191Q111 271 170.50 319Q230 367 305 371Q263 388 241.50 430.50Q220 473 223 520.50Q226 568 248 602Q228 645 228 704Q228 720 253 722Q278 724 280 706M357 568Q401 524 451 526Q475 525 488.50 537Q502 549 503 569Q504 595 476 606Q448 617 412 607Q376 597 357 568Z"  horiz-adv-x="582" vert-adv-y="1000"  />

      
      <glyph glyph-name="uni46" unicode="&#x46;" d="M553 678Q575 702 637 694Q686 688 687 671L687 667Q653 573 581 341Q588 341 637 343Q650 334 648.50 307Q647 280 630 268Q617 268 593 267.50Q569 267 557 266Q542 219 533.50 193.50Q525 168 511 134Q497 100 485 82Q473 64 455 44Q437 24 415.50 14.50Q394 5 366-2Q338-9 303-9Q257-9 221.50 5.50Q186 20 167 44Q148 68 141.50 97.50Q135 127 142 156Q149 185 170.50 211Q192 237 224 253Q245 262 278 238Q311 214 295 195Q260 153 267 112Q274 71 314 71Q327 71 338 76.50Q349 82 359 96.50Q369 111 376 124Q383 137 392.50 164.50Q402 192 407.50 210.50Q413 229 424 266L364 266Q348 274 353 304Q358 334 374 340Q425 340 446 341Q495 510 529 589Q501 563 464 557Q427 551 396.50 557.50Q366 564 330.50 562.50Q295 561 271 544Q251 531 244.50 511.50Q238 492 247 479Q254 462 276.50 459Q299 456 323 472Q340 484 359.50 461Q379 438 370 427Q327 377 250 381Q173 385 139 428Q115 457 113 496Q111 535 134.50 572Q158 609 204 628Q246 646 288.50 648Q331 650 363.50 643.50Q396 637 428 633Q460 629 491.50 638.50Q523 648 553 678Z"  horiz-adv-x="669" vert-adv-y="1000"  />

      
      <glyph glyph-name="uni47" unicode="&#x47;" d="M493 693Q592 692 641.50 634Q691 576 657 497Q626 425 557 395.50Q488 366 410.50 381Q333 396 270 446Q246 400 231.50 341Q217 282 215.50 225Q214 168 241 129Q268 90 322 89Q437 87 509 277Q513 288 544 291.50Q575 295 602.50 287Q630 279 625 263Q571 75 554 10Q658 63 728 214Q732 219 742 216.50Q752 214 760.50 205.50Q769 197 767 192Q715 89 663.50 32Q612-25 535-57Q519-119 503-159Q487-199 462.50-232.50Q438-266 402-281Q366-296 316-296Q258-297 222.50-270.50Q187-244 193-191Q196-162 210-138Q224-114 244-98Q264-82 295-67Q326-52 353-43Q380-34 418-24L445 70Q383 6 295 9Q202 12 149.50 69Q97 126 91 207Q85 288 111.50 378.50Q138 469 193 537Q148 606 143 679Q142 690 156.50 694Q171 698 186.50 693.50Q202 689 203 679Q210 629 238 586Q350 696 493 693M487 612Q384 612 308 509Q369 459 443.50 467.50Q518 476 540 539Q551 570 536 591Q521 612 487 612M404-90Q366-105 337-127.50Q308-150 301-172Q288-207 311-213Q333-218 353-192Q359-185 362-177Q386-159 404-90Z"  horiz-adv-x="718" vert-adv-y="1000"  />

      
      <glyph glyph-name="uni48" unicode="&#x48;" d="M542 679Q562 699 613.50 694Q665 689 673 667Q647 592 558 304Q566 303 610 295Q654 287 677 284Q682 301 698.50 359.50Q715 418 723.50 445.50Q732 473 746 518.50Q760 564 772 598Q784 632 797 661Q809 675 861 668.50Q913 662 925 640Q879 527 812 276Q889 281 945 322Q955 329 964.50 321Q974 313 975 301Q976 289 969 280Q897 222 794 213Q745 39 739 16Q722-5 666.50-3.50Q611-2 603 23L659 217Q635 220 592.50 226Q550 232 535 234Q517 180 504.50 148Q492 116 471.50 82Q451 48 428 31Q405 14 370.50 2.50Q336-9 290-9Q193-9 157 38.50Q121 86 135 150Q151 231 229.50 279Q308 327 426 321Q485 507 514 588Q491 565 459 557.50Q427 550 399 555Q371 560 338.50 560Q306 560 281 552Q228 537 229 495Q231 470 256 461Q281 452 311 472Q326 474 339 454.50Q352 435 345 419Q297 369 227 374Q157 379 126 427Q91 478 105 536Q123 614 220 634Q270 647 316 645.50Q362 644 396 636Q430 628 468.50 636.50Q507 645 542 679M404 238Q293 234 265 147Q254 121 263 96Q272 71 299 71Q333 70 357 112Q381 154 404 238Z"  horiz-adv-x="910" vert-adv-y="1000"  />

      
      <glyph glyph-name="uni49" unicode="&#x49;" d="M475 670Q495 691 548.50 689.50Q602 688 611 667Q589 605 486 278Q472 234 466 214.50Q460 195 447 160.50Q434 126 425 110Q416 94 400.50 70Q385 46 369.50 35Q354 24 332.50 11.50Q311-1 285-5.50Q259-10 227-10Q173-10 133.50 11.50Q94 33 79 66.50Q64 100 64 136Q64 172 86.50 204Q109 236 148 250Q170 254 195.50 235Q221 216 219 195Q196 169 191.50 139.50Q187 110 200.50 90.50Q214 71 240 71Q250 71 258.50 75Q267 79 275 88Q283 97 289.50 106Q296 115 303.50 131.50Q311 148 316 160.50Q321 173 328 196Q335 219 339.50 233.50Q344 248 352 275.50Q360 303 365 318Q436 559 440 571Q417 545 382 527.50Q347 510 319 502.50Q291 495 267 479Q243 463 237 439Q222 384 269 374Q279 363 271 339Q263 315 246 311Q178 305 136 346Q94 387 106 445Q114 486 144 511Q174 536 216.50 549.50Q259 563 304 574.50Q349 586 396.50 609.50Q444 633 475 670Z"  horiz-adv-x="558" vert-adv-y="1000"  />

      
      <glyph glyph-name="uni4a" unicode="&#x4a;" d="M164-295Q119-295 88-277.50Q57-260 45.50-232.50Q34-205 39.50-172Q45-139 68-110Q111-43 282-3Q378 348 446 571Q418 538 370.50 519Q323 500 287.50 485Q252 470 244 441Q229 386 274 374Q281 370 281 356Q281 342 271 326.50Q261 311 248 311Q180 307 139.50 349Q99 391 114 448Q124 488 155 512.50Q186 537 228 549.50Q270 562 314.50 573.50Q359 585 406 609.50Q453 634 483 672Q506 693 558.50 690Q611 687 615 666Q507 344 418 25Q533 68 607 214Q611 218 620.50 215.50Q630 213 639 205Q648 197 645 191Q597 93 537.50 41.50Q478-10 399-41Q366-158 337-205Q282-295 164-295M168-215Q185-217 205-201.50Q225-186 237-158Q254-120 262-76Q165-107 144-157Q135-183 142.50-198.50Q150-214 168-215Z"  horiz-adv-x="596" vert-adv-y="1000"  />

      
      <glyph glyph-name="uni4b" unicode="&#x4b;" d="M752 674Q773 695 824 688.50Q875 682 880 663Q844 546 777.50 456.50Q711 367 620 334Q670 310 688 234Q694 211 700.50 174Q707 137 712.50 109.50Q718 82 727.50 52.50Q737 23 754 2Q771-19 796-30Q811-52 784.50-88.50Q758-125 716-122Q680-113 654.50-88.50Q629-64 616-24.50Q603 15 596.50 47.50Q590 80 584.50 128.50Q579 177 575 196Q566 242 548.50 265Q531 288 498 290Q479 222 465.50 182.50Q452 143 431 101.50Q410 60 385.50 39Q361 18 324.50 4.50Q288-9 239-9Q185-10 146 11.50Q107 33 92 66Q77 99 77 134.50Q77 170 99 202Q121 234 159 250Q180 254 206.50 236.50Q233 219 232 196Q209 170 204 140Q199 110 213 90Q227 70 254 70Q285 71 305.50 108Q326 145 349 221Q372 297 402.50 403Q433 509 452 571Q429 546 393.50 528Q358 510 330 501.50Q302 493 278.50 477Q255 461 249 437Q236 386 280 372Q285 368 286 355.50Q287 343 279 328.50Q271 314 258 311Q190 305 147.50 347.50Q105 390 119 448Q129 488 160 513Q191 538 233.50 551Q276 564 320.50 575.50Q365 587 412 611Q459 635 489 671Q504 693 562 690.50Q620 688 622 667Q586 569 530 387Q557 397 581 413Q605 429 622.50 444Q640 459 657.50 482.50Q675 506 685 522Q695 538 707.50 565Q720 592 725 604Q730 616 740 642.50Q750 669 752 674Z"  horiz-adv-x="862" vert-adv-y="1000"  />

      
      <glyph glyph-name="uni4c" unicode="&#x4c;" d="M484 665Q503 692 558.50 689Q614 686 621 665Q603 615 537.50 395.50Q472 176 439 113Q453 98 477 70.50Q501 43 512.50 30.50Q524 18 544-2.50Q564-23 576-31.50Q588-40 606-51Q624-62 639-64Q654-66 672-65.50Q690-65 709-58Q732-60 739.50-101Q747-142 725-164Q691-176 657.50-175.50Q624-175 598.50-168.50Q573-162 542.50-141Q512-120 493.50-105Q475-90 447-57Q419-24 407-8.50Q395 7 369 42Q304-6 222-9Q155-11 113.50 19Q72 49 76 107Q78 159 124 188.50Q170 218 230 217Q290 216 338 188Q367 270 404 401.50Q441 533 455 575Q433 548 397.50 529Q362 510 333 502Q304 494 279 478.50Q254 463 248 439Q234 387 279 374Q287 363 280 339.50Q273 316 258 311Q189 305 147 346Q105 387 118 447Q126 487 156 511.50Q186 536 228 548.50Q270 561 314.50 572.50Q359 584 406.50 606.50Q454 629 484 665M195 122Q183 105 193.50 87.50Q204 70 233 70Q277 69 308 115Q283 140 244.50 142Q206 144 195 122Z"  horiz-adv-x="610" vert-adv-y="1000"  />

      
      <glyph glyph-name="uni4d" unicode="&#x4d;" d="M1015-82Q984-72 964-49.50Q944-27 934.50 0.50Q925 28 925.50 70Q926 112 930.50 149.50Q935 187 948.50 242.50Q962 298 974 339Q986 380 1005 441Q1008 451 1014.50 470Q1021 489 1024.50 502Q1028 515 1032.50 532.50Q1037 550 1037.50 561.50Q1038 573 1036.50 584Q1035 595 1028 600.50Q1021 606 1009 606Q968 605 910.50 540.50Q853 476 815 395Q785 306 760 219Q735 132 721 80Q707 28 700 10Q687-10 628-9Q569-8 567 19Q588 83 629 230Q670 377 693 455Q700 478 702.50 488.50Q705 499 710.50 520.50Q716 542 716 553.50Q716 565 715.50 579Q715 593 708 599.50Q701 606 690 606Q645 608 579 516Q513 424 469 326Q447 259 413.50 141Q380 23 376 11Q356-11 302.50-9Q249-7 242 19Q259 70 328 306Q360 419 407 569Q384 544 349 527Q314 510 285.50 502Q257 494 233.50 478.50Q210 463 204 439Q192 386 237 373Q244 369 244.50 355.50Q245 342 236.50 327Q228 312 215 311Q146 306 103.50 346.50Q61 387 74 447Q83 487 113 511.50Q143 536 185 549.50Q227 563 272 575Q317 587 365.50 612Q414 637 446 675Q464 695 510.50 690.50Q557 686 562 666Q555 645 542 603Q529 561 522 540Q567 605 629 649.50Q691 694 752 694Q813 693 835.50 654.50Q858 616 847 551Q956 695 1064 694Q1095 694 1117 684.50Q1139 675 1150.50 661.50Q1162 648 1166.50 625.50Q1171 603 1171 584Q1171 565 1166 536.50Q1161 508 1156.50 491.50Q1152 475 1144 448Q1136 421 1134 414Q1125 382 1111.50 336.50Q1098 291 1089 261Q1080 231 1070.50 193.50Q1061 156 1058 130.50Q1055 105 1057 79.50Q1059 54 1069.50 36.50Q1080 19 1100 9Q1116-13 1086.50-51.50Q1057-90 1015-82Z"  horiz-adv-x="1192" vert-adv-y="1000"  />

      
      <glyph glyph-name="uni4e" unicode="&#x4e;" d="M755 694Q781 694 800.50 687.50Q820 681 833 672Q846 663 854 647.50Q862 632 866 617.50Q870 603 869.50 582Q869 561 867.50 546Q866 531 861 508.50Q856 486 852.50 473.50Q849 461 843.50 440.50Q838 420 836 414Q827 382 813.50 337Q800 292 791 261.50Q782 231 772.50 193.50Q763 156 760 130Q757 104 758.50 79Q760 54 771 36.50Q782 19 801 9Q819-9 790-49Q761-89 726-83Q701-78 682.50-67Q664-56 653-38Q642-20 634.50 0Q627 20 626.50 49.50Q626 79 627 104Q628 129 635 166.50Q642 204 648 231.50Q654 259 666 301Q678 343 686 370.50Q694 398 707 441Q740 546 736 578Q732 606 707 606Q652 606 580 517.50Q508 429 467 315Q445 245 424 173Q403 101 392.50 64.50Q382 28 375 12Q366-12 305.50-9.50Q245-7 242 20Q267 96 322.50 286Q378 476 408 571Q385 545 349.50 527Q314 509 285.50 501.50Q257 494 233 478.50Q209 463 204 440Q192 387 237 373Q244 369 244.50 355.50Q245 342 236 327Q227 312 214 311Q146 305 104 347Q62 389 74 447Q85 496 130.50 524.50Q176 553 229 563.50Q282 574 346 601.50Q410 629 447 675Q464 695 510.50 691Q557 687 562 665L518 524Q563 594 626 644.50Q689 695 755 694Z"  horiz-adv-x="889" vert-adv-y="1000"  />

      
      <glyph glyph-name="uni4f" unicode="&#x4f;" d="M471 693Q544 690 592 657.50Q640 625 659.50 579.50Q679 534 682.50 476.50Q686 419 678 371Q670 323 656 279Q689 282 728.50 295Q768 308 794 325Q802 330 804 315Q805 288 793 276Q722 227 635 217Q595 118 517.50 55Q440-8 336-9Q201-9 149 80Q116 135 122 219.50Q128 304 171 357Q191 372 227 349.50Q263 327 257 307Q232 265 230.50 210.50Q229 156 257 113.50Q285 71 338 70Q447 69 505 224Q375 241 292.50 329Q210 417 230 533Q240 591 280.50 629.50Q321 668 370 682Q419 696 471 693M461 611Q418 613 390.50 589Q363 565 356 521Q345 450 392 381Q439 312 527 293Q536 329 542 374.50Q548 420 548 476.50Q548 533 526.50 571.50Q505 610 461 611Z"  horiz-adv-x="754" vert-adv-y="1000"  />

      
      <glyph glyph-name="uni50" unicode="&#x50;" d="M432 561Q451 568 472.50 566.50Q494 565 511 556.50Q528 548 526 539Q485 510 426 298Q510 280 571 316.50Q632 353 647 437Q662 518 612 564Q562 610 483 612Q407 614 344 586Q281 558 256 510Q231 462 259 399Q261 381 232.50 360.50Q204 340 181 348Q115 384 115 460Q115 534 169.50 589Q224 644 306.50 669.50Q389 695 485 694Q548 693 604.50 676Q661 659 705 627Q749 595 770 543.50Q791 492 779 428Q758 307 655.50 246.50Q553 186 405 224Q354 34 346 14Q332-6 276-3Q220 0 222 28Q236 61 269 192.50Q302 324 342.50 427.50Q383 531 432 561Z"  horiz-adv-x="793" vert-adv-y="1000"  />

      
      <glyph glyph-name="uni51" unicode="&#x51;" d="M623-151Q509-125 379 39Q315-5 243-8Q161-10 117 19.50Q73 49 74 104Q76 156 119.50 188Q163 220 228 218Q313 215 386 160Q515 297 523 473Q525 540 493.50 576.50Q462 613 402 613Q331 613 285.50 574.50Q240 536 232 476Q218 372 290 329Q306 316 280 291Q250 264 223 271Q219 272 216 274Q153 300 124 353Q95 406 100 472Q108 567 190.50 631Q273 695 414 694Q529 693 597 633Q665 573 659 476Q649 279 467 97Q475 89 494 70.50Q513 52 521.50 43.50Q530 35 546.50 20.50Q563 6 573-1.50Q583-9 596-18.50Q609-28 621-33Q633-38 644-41Q680-55 714-42Q736-46 742-87Q748-128 726-149Q678-166 623-151M239 68Q278 68 324 104Q284 142 245 142Q224 142 210.50 130.50Q197 119 195 104Q193 90 204.50 79Q216 68 239 68Z"  horiz-adv-x="699" vert-adv-y="1000"  />

      
      <glyph glyph-name="uni52" unicode="&#x52;" d="M672-104Q644-101 620-88.50Q596-76 577.50-50.50Q559-25 546-4.50Q533 16 519.50 55Q506 94 501 111Q496 128 485 168Q473 223 446 243Q439 243 430 243Q421 243 410.50 243Q400 243 396 243Q345 71 326 15Q317 2 285.50-1.50Q254-5 227 3Q200 11 202 29Q215 59 262.50 222Q310 385 325 423Q363 524 407 558Q426 569 450.50 568.50Q475 568 494.50 559.50Q514 551 511 542Q469 498 416 315Q507 313 567 355Q627 397 634 475Q638 537 589.50 574Q541 611 463 612Q398 612 343 587Q288 562 265 522Q212 468 244 400Q246 382 218 361.50Q190 341 167 348Q134 365 115.50 398Q97 431 99 467Q105 576 214.50 635.50Q324 695 473 694Q602 693 686 633Q770 573 763 476Q751 313 563 260Q587 239 602 177Q612 143 621 119.50Q630 96 645.50 67.50Q661 39 682 21.50Q703 4 729-1Q742-17 739.50-41Q737-65 717-86Q697-107 672-104Z"  horiz-adv-x="790" vert-adv-y="1000"  />

      
      <glyph glyph-name="uni53" unicode="&#x53;" d="M588 517Q578 493 532.50 494.50Q487 496 481 520Q490 612 413 614Q386 613 364.50 594Q343 575 340 532Q337 498 357 464Q377 430 407 400Q437 370 467 338Q497 306 517 264.50Q537 223 534 178Q528 86 461.50 38Q395-10 286-9Q215-8 167.50 18Q120 44 101.50 86Q83 128 82.50 176.50Q82 225 99 275Q114 294 159.50 287.50Q205 281 207 258Q186 174 214 123Q242 72 296 70Q343 69 370.50 96.50Q398 124 401 173Q403 210 382.50 246.50Q362 283 331 313Q300 343 270 375Q240 407 220.50 449.50Q201 492 206 539Q214 613 268 654.50Q322 696 414 695Q510 693 556 645Q602 597 588 517Z"  horiz-adv-x="603" vert-adv-y="1000"  />

      
      <glyph glyph-name="uni54" unicode="&#x54;" d="M230 675Q289 698 355 692.50Q421 687 466.50 671Q512 655 573 639.50Q634 624 683 628Q729 632 748.50 653Q768 674 766 715Q776 729 800 731.50Q824 734 837 723Q862 681 852 633Q842 585 812 563Q769 530 709 525Q649 520 595 531Q587 503 563 421.50Q539 340 521 278Q475 137 447 91Q396 5 299-7Q281-9 261-9Q214-9 178 6Q142 21 124 46Q106 71 99.50 99.50Q93 128 99 157Q114 226 180 250Q205 254 230 234.50Q255 215 251 196Q228 170 224 139.50Q220 109 234.50 89Q249 69 275 70Q309 71 333 122.50Q357 174 387 277Q469 563 472 571Q344 619 298 596Q263 581 257.50 550Q252 519 275.50 508Q299 497 340 519Q356 520 368 503.50Q380 487 379 470Q344 429 296 417.50Q248 406 206 424Q164 442 143 482Q128 516 129 552.50Q130 589 157 624Q184 659 230 675Z"  horiz-adv-x="716" vert-adv-y="1000"  />

      
      <glyph glyph-name="uni55" unicode="&#x55;" d="M464 673Q484 693 539 689.50Q594 686 595 664Q517 426 457 220Q414 72 490 72Q538 72 586.50 125Q635 178 659 255Q679 319 721.50 463Q764 607 779 657Q802 679 855 669.50Q908 660 909 634Q859 499 771 175Q746 74 784 73Q817 71 857 109.50Q897 148 928 214Q932 219 941.50 216Q951 213 959.50 205Q968 197 966 192Q931 117 870.50 54.50Q810-8 738-8Q697-8 671 20.50Q645 49 646 100Q610 50 556 20Q502-10 453-9Q260-9 330 256Q330 257 427 570Q405 544 369.50 526.50Q334 509 306 501.50Q278 494 253.50 478.50Q229 463 224 439Q212 388 255 374Q267 367 258.50 340Q250 313 233 312Q164 306 121.50 347.50Q79 389 94 447Q104 487 134.50 511.50Q165 536 207 549.50Q249 563 293.50 575Q338 587 385.50 611.50Q433 636 464 673Z"  horiz-adv-x="918" vert-adv-y="1000"  />

      
      <glyph glyph-name="uni56" unicode="&#x56;" d="M810 819Q885 741 890 618Q893 538 860 457.50Q827 377 767 314Q736 283 666.50 225Q597 167 548 116Q499 65 473 12Q458-10 408-7Q358-4 354 27Q368 113 377.50 284Q387 455 414 584Q394 561 359.50 543Q325 525 296 516Q267 507 241.50 490.50Q216 474 210 451Q196 396 242 384Q249 380 249.50 366.50Q250 353 241 337.50Q232 322 219 321Q153 315 108 356.50Q63 398 78 459Q88 497 116.50 521Q145 545 184.50 557.50Q224 570 265 581Q306 592 350.50 612.50Q395 633 425 664Q452 690 499.50 687.50Q547 685 551 664Q535 614 523.50 546Q512 478 508 436Q504 394 497.50 302Q491 210 489 187Q515 222 546 255Q577 288 619.50 329Q662 370 683 391Q773 481 770 610Q770 691 718 755Q713 778 747.50 802Q782 826 810 819Z"  horiz-adv-x="877" vert-adv-y="1000"  />

      
      <glyph glyph-name="uni57" unicode="&#x57;" d="M1174 732Q1207 739 1237.50 702.50Q1268 666 1253 644Q1225 627 1199.50 588Q1174 549 1151 487Q1128 425 1113.50 377.50Q1099 330 1078 254Q1042 126 976.50 58.50Q911-9 797-9Q726-9 691 30.50Q656 70 655 126Q622 61 570 26Q518-9 454-9Q259-8 330 262Q345 315 382 431Q419 547 426 570Q404 544 368.50 526.50Q333 509 304.50 501.50Q276 494 251.50 478.50Q227 463 221 439Q209 387 254 373Q265 367 257 340.50Q249 314 233 312Q160 308 121 347Q82 386 92 445Q99 483 128.50 508Q158 533 201 547Q244 561 289.50 573.50Q335 586 383 610.50Q431 635 461 670Q481 692 537.50 688.50Q594 685 593 662Q503 380 456 220Q437 166 442.50 118.50Q448 71 489 72Q527 72 570.50 127Q614 182 640 270Q656 325 680 399.50Q704 474 731 556Q758 638 768 669Q780 692 837 684.50Q894 677 897 647Q809 387 756 190Q741 146 752 108.50Q763 71 804 71Q845 71 881.50 118Q918 165 939 237Q1014 491 1033 543Q1085 684 1149 721Q1161 728 1174 732Z"  horiz-adv-x="1196" vert-adv-y="1000"  />

      
      <glyph glyph-name="uni58" unicode="&#x58;" d="M856 713Q884 720 913.50 686.50Q943 653 928 627Q883 600 825.50 534.50Q768 469 727.50 411Q687 353 629 263Q654 188 677.50 136.50Q701 85 742.50 33Q784-19 836-43Q859-65 837-110Q815-155 784-149Q740-140 701-110.50Q662-81 631.50-36Q601 9 579.50 53Q558 97 536 154Q426-11 273-9Q192-8 151 34.50Q110 77 112 136Q113 172 135.50 205.50Q158 239 194 248Q218 255 245 235Q272 215 267 194Q239 169 239 126Q238 101 250.50 85.50Q263 70 291 70Q328 70 382.50 128Q437 186 491 280Q451 435 468 581Q436 543 385.50 522.50Q335 502 300 487Q265 472 257 444Q242 392 287 377Q294 375 295 361Q296 347 288 332.50Q280 318 267 315Q201 308 157 347Q113 386 126 448Q134 486 162.50 510.50Q191 535 231.50 548Q272 561 315 572.50Q358 584 406 606.50Q454 629 486 662Q505 686 555.50 684.50Q606 683 611 660Q575 531 594 402Q629 464 656 506Q683 548 718.50 597Q754 646 789 675.50Q824 705 856 713Z"  horiz-adv-x="861" vert-adv-y="1000"  />

      
      <glyph glyph-name="uni59" unicode="&#x59;" d="M911 213Q915 218 924.50 215.50Q934 213 943 205Q952 197 949 191Q897 89 838.50 32Q780-25 699-57Q685-113 670-155Q642-227 597.50-261.50Q553-296 473-296Q416-297 383.50-266Q351-235 358-186Q363-156 379-132Q395-108 414.50-92.50Q434-77 466-63Q498-49 521.50-42Q545-35 582-25Q588-7 602.50 42Q617 91 621 103Q549 7 454 7Q361 7 331.50 77.50Q302 148 336 272Q342 296 427 570Q405 544 369.50 526.50Q334 509 305.50 501.50Q277 494 253 478.50Q229 463 223 439Q211 387 253 374Q261 371 261.50 356Q262 341 253.50 327Q245 313 232 312Q163 308 121.50 347.50Q80 387 93 445Q102 486 132.50 511Q163 536 205.50 549Q248 562 293 574Q338 586 386 611Q434 636 465 674Q485 688 517 689.50Q549 691 572 683Q595 675 595 664Q503 380 462 236Q419 87 491 86Q541 86 588.50 137Q636 188 666 271Q738 517 782 660Q800 680 856 671.50Q912 663 913 640Q885 563 820.50 351Q756 139 719 10Q837 59 911 213M569-90Q535-102 505-125Q475-148 466-169Q458-190 463-203Q468-216 485-216Q523-214 547-158Q560-125 569-90Z"  horiz-adv-x="901" vert-adv-y="1000"  />

      
      <glyph glyph-name="uni5a" unicode="&#x5a;" d="M643 681Q688 699 724 680.50Q760 662 761 630Q707 557 604.50 372.50Q502 188 436 103Q446 94 474 65.50Q502 37 513 27Q524 17 548.50-4Q573-25 587.50-32Q602-39 623.50-47.50Q645-56 664.50-54Q684-52 705-44Q728-50 734-90Q740-130 718-149Q685-160 652-160Q619-160 591.50-153Q564-146 534.50-129Q505-112 483-95Q461-78 434.50-51.50Q408-25 391.50-5.50Q375 14 352 42Q316 15 285.50 4Q255-7 211-8Q138-10 92.50 17.50Q47 45 50 104Q52 155 95.50 187Q139 219 202 218Q283 217 355 166Q393 219 473.50 374.50Q554 530 601 600Q569 584 526.50 585.50Q484 587 450 597Q416 607 376.50 611.50Q337 616 310 606Q269 592 263 557Q258 526 284 515Q310 505 349 527Q366 536 382 510Q398 484 387 473Q329 418 251 429Q173 440 147 501Q124 556 153.50 615.50Q183 675 261 694Q311 706 366.50 699Q422 692 460 678.50Q498 665 549.50 662.50Q601 660 643 681M223 141Q193 142 177.50 123.50Q162 105 173 86.50Q184 68 219 68Q263 70 297 108Q266 141 223 141Z"  horiz-adv-x="713" vert-adv-y="1000"  />

      
      <glyph glyph-name="uni5b" unicode="&#x5b;" d="M102-164Q65-164 52.50-148Q40-132 52-90L249 631Q259 666 274.50 676Q290 686 319 686L461 686Q474 686 475 663.50Q476 641 466.50 618.50Q457 596 444 596L362 596L177-74L254-74Q266-74 266.50-96.50Q267-119 258-141.50Q249-164 237-164L102-164Z"  horiz-adv-x="492" vert-adv-y="1000"  />

      
      <glyph glyph-name="uni5c" unicode="&#x5c;" d="M443 3Q401 58 263.50 304Q126 550 74 614Q59 633 93 653Q131 674 160 663Q168 660 173 654Q226 587 368 333.50Q510 80 544 35Q559 15 522 0Q482-16 453-4Q447-2 443 3Z"  horiz-adv-x="603" vert-adv-y="1000"  />

      
      <glyph glyph-name="uni5d" unicode="&#x5d;" d="M381 687Q418 687 430 671Q442 655 431 613L244-109Q234-144 218.50-153.50Q203-163 174-163L32-163Q19-163 17.50-140.50Q16-118 25.50-96Q35-74 48-74L130-74L306 597L230 597Q218 597 217 619.50Q216 642 224.50 664.50Q233 687 245 687L381 687Z"  horiz-adv-x="491" vert-adv-y="1000"  />

      
      <glyph glyph-name="uni5e" unicode="&#x5e;" d="M417 470Q420 446 390.50 426.50Q361 407 338 424L258 556L141 426Q123 415 103 419Q83 423 70 440Q57 457 67 472L220 646Q239 667 271.50 666Q304 665 315 645L417 470Z"  horiz-adv-x="500" vert-adv-y="1000"  />

      
      <glyph glyph-name="uni5f" unicode="&#x5f;" d="M123-77Q107-77 101.50-57.50Q96-38 105-19Q114 0 132 0L374-1Q391-1 397.50-20Q404-39 396-58Q388-77 370-77L123-77Z"  horiz-adv-x="483" vert-adv-y="1000"  />

      
      <glyph glyph-name="uni60" unicode="&#x60;" d="M144 849Q149 841 172 809Q195 777 206 760Q221 739 191 728Q160 718 141 731Q139 733 137 735L55 831Q41 847 72 859Q109 872 135 857Q141 854 144 849Z"  horiz-adv-x="249" vert-adv-y="1000"  />

      
      <glyph glyph-name="uni61" unicode="&#x61;" d="M252 424Q311 433 378.50 419Q446 405 486 364Q493 350 470.50 323.50Q448 297 435 302Q370 352 289 344Q245 340 206 305.50Q167 271 146 219Q125 173 122 133.50Q119 94 134 81Q167 49 220 126Q273 203 300 294Q318 311 363 300.50Q408 290 414 272Q386 172 381 148Q364 73 398 73Q425 74 466.50 115.50Q508 157 532 213Q536 218 546 215.50Q556 213 565 205Q574 197 571 192Q526 102 466 48Q406-6 337-6Q300-6 282.50 26.50Q265 59 273 114Q241 58 204 25.50Q167-7 110-8Q52-10 16.50 30Q-19 70-7 154Q8 257 86 333.50Q164 410 252 424Z"  horiz-adv-x="523" vert-adv-y="1000"  />

      
      <glyph glyph-name="uni62" unicode="&#x62;" d="M163-8Q33-7 19 125Q-13 271 138 679Q161 694 213 686Q265 678 268 657Q230 548 182 383Q253 431 328 419Q393 408 418.50 353Q444 298 431 229.50Q418 161 376 101Q472 97 523 214Q527 219 536.50 216.50Q546 214 555.50 206Q565 198 562 192Q484 28 330 54Q259-8 163-8M163 70Q204 63 236 100Q224 122 237.50 144Q251 166 274 164Q284 188 292 216Q300 244 303 274Q306 304 295.50 325Q285 346 260 348Q216 351 159 301Q76 85 163 70Z"  horiz-adv-x="513" vert-adv-y="1000"  />

      
      <glyph glyph-name="uni63" unicode="&#x63;" d="M264 425Q328 424 359.50 396Q391 368 389 332Q387 296 363 264Q345 243 297.50 243Q250 243 246 264Q253 273 259 285.50Q265 298 268.50 311Q272 324 268.50 333.50Q265 343 253 344Q217 348 181.50 300.50Q146 253 140 185Q136 131 164 101Q192 71 242 71Q300 71 351.50 106Q403 141 436 214Q440 219 449.50 216Q459 213 468 205Q477 197 475 192Q374-15 175-8Q97-4 49 50Q1 104 3 180Q7 279 81.50 352.50Q156 426 264 425Z"  horiz-adv-x="426" vert-adv-y="1000"  />

      
      <glyph glyph-name="uni64" unicode="&#x64;" d="M411 678Q423 694 480.50 686.50Q538 679 539 657Q532 635 513 577Q494 519 479.50 472.50Q465 426 446 362.50Q427 299 416 252Q405 205 397.50 161.50Q390 118 394.50 95Q399 72 415 73Q440 74 477 116Q514 158 539 214Q543 219 552.50 216.50Q562 214 571 205.50Q580 197 577 192Q534 104 476 49.50Q418-5 352-6Q311-6 289 26Q267 58 273 114Q212-7 110-9Q34-10 6.50 47.50Q-21 105 1 184Q23 263 77 325Q129 386 198 408Q267 430 331 421Q348 486 411 678M307 340Q272 345 233 325.50Q194 306 165 258Q148 231 135.50 193.50Q123 156 121 122Q119 88 139 77Q160 63 193.50 93Q227 123 256 186Q278 230 307 340Z"  horiz-adv-x="529" vert-adv-y="1000"  />

      
      <glyph glyph-name="uni65" unicode="&#x65;" d="M266 424Q323 423 358.50 395Q394 367 397.50 330Q401 293 384 253Q357 197 291 173.50Q225 150 140 167Q139 123 167 98Q195 73 248 70Q305 66 366.50 100Q428 134 466 214Q470 219 480 216.50Q490 214 498.50 205.50Q507 197 505 192Q405-14 209-10Q95-7 44 55Q-7 117 8 206Q24 306 96.50 366.50Q169 427 266 424M253 343Q222 346 190.50 311Q159 276 146 223Q194 218 227 236.50Q260 255 272 287Q282 307 277.50 324.50Q273 342 253 343Z"  horiz-adv-x="456" vert-adv-y="1000"  />

      
      <glyph glyph-name="uni66" unicode="&#x66;" d="M163 610Q188 645 220.50 666Q253 687 283.50 690Q314 693 343 684.50Q372 676 390 652Q408 628 416 594Q424 560 412 514Q393 423 315.50 346.50Q238 270 142 233Q131 195 116 136Q314 64 381 214Q385 219 394.50 216Q404 213 413 205.50Q422 198 420 193Q400 147 372 118Q344 89 315 78.50Q286 68 254 64Q222 60 194 65Q244 2 245.50-81.50Q247-165 205-222Q152-296 56-295Q-14-294-39.50-253Q-65-212-59-132Q-53-21 9 215Q86 500 163 610M254 561Q206 470 161 314Q213 348 255.50 413Q298 478 313 542Q325 592 303 601Q281 610 254 561M95 57Q59-82 55-161Q54-211 78-211Q101-211 120-170Q122-165 124-159Q144-114 138-46.50Q132 21 95 57Z"  horiz-adv-x="372" vert-adv-y="1000"  />

      
      <glyph glyph-name="uni67" unicode="&#x67;" d="M258 424Q317 432 381.50 418Q446 404 491 364Q497 351 474.50 323.50Q452 296 439 302Q380 351 294 345Q249 342 210.50 308Q172 274 147 220Q125 171 122.50 131Q120 91 136 79Q156 63 192 91Q228 119 259 182Q284 232 305 295Q319 311 367 300Q415 289 419 272Q403 219 381.50 134.50Q360 50 349 11Q402 33 444 81Q486 129 528 214Q532 219 541.50 216Q551 213 559.50 205Q568 197 565 191Q511 84 459.50 29Q408-26 330-58Q293-187 250-241.50Q207-296 115-296Q59-297 26-268Q-7-239-1-188Q3-158 19-134Q35-110 54-94.50Q73-79 106-64.50Q139-50 162.50-43Q186-36 225-25Q232-6 268 103Q202-7 110-8Q40-10 10 40Q-20 90-6.50 161.50Q7 233 54 296Q93 350 148.50 383.50Q204 417 258 424M207-94Q130-122 111-166Q95-199 117-211Q140-223 166-196Q182-180 191-153Q196-138 207-94Z"  horiz-adv-x="517" vert-adv-y="1000"  />

      
      <glyph glyph-name="uni68" unicode="&#x68;" d="M148 679Q168 695 224 686Q280 677 277 656Q239 556 180 340Q269 427 339 427Q400 427 419.50 388.50Q439 350 419 290Q413 268 400 228Q387 188 380.50 165.50Q374 143 369 118Q364 93 368.50 81.50Q373 70 387 71Q414 72 451.50 115Q489 158 512 214Q516 219 526 216.50Q536 214 545 205.50Q554 197 551 192Q454-2 333-9Q270-12 249 18Q228 48 235 101Q240 135 282 279Q291 300 286.50 317.50Q282 335 259 333Q239 332 210.50 310.50Q182 289 158 258Q119 114 95 10Q92-4 35-8Q-33-13-42 10Q-43 14-42 19Q57 412 148 679Z"  horiz-adv-x="503" vert-adv-y="1000"  />

      
      <glyph glyph-name="uni69" unicode="&#x69;" d="M157 483Q128 483 110.50 504Q93 525 98 553Q103 584 126 604Q149 624 182 624Q213 623 230.50 603Q248 583 243 553Q238 522 215 502.50Q192 483 157 483M81-8Q15-10-6.50 24Q-28 58-14 120Q6 206 67 416Q82 433 133.50 427Q185 421 194 400Q123 153 119 133Q113 104 116 87Q119 70 132 71Q163 71 203.50 113Q244 155 270 213Q274 219 283.50 216Q293 213 302 204.50Q311 196 309 191Q211-4 81-8Z"  horiz-adv-x="260" vert-adv-y="1000"  />

      
      <glyph glyph-name="uni6a" unicode="&#x6a;" d="M154 483Q125 483 107.50 504Q90 525 95 553Q100 584 123 604Q146 624 179 624Q211 623 228 603Q245 583 240 553Q235 522 212 502.50Q189 483 154 483M-156-296Q-211-297-240.50-269.50Q-270-242-268.50-202.50Q-267-163-237-127Q-215-92-169.50-69.50Q-124-47-52-26Q-42 14-0.50 173Q41 332 62 415Q73 432 129.50 425.50Q186 419 189 399Q168 332 80 10Q190 58 266 214Q270 219 279.50 215.50Q289 212 297.50 204Q306 196 304 192Q252 88 196.50 31.50Q141-25 62-58Q26-189-19-242Q-64-295-156-296M-140-214Q-125-215-106.50-199Q-88-183-78-153Q-69-126-61-94Q-96-108-122.50-127.50Q-149-147-158-166Q-167-188-161.50-201Q-156-214-140-214Z"  horiz-adv-x="256" vert-adv-y="1000"  />

      
      <glyph glyph-name="uni6b" unicode="&#x6b;" d="M493 214Q497 219 506.50 216Q516 213 524.50 205Q533 197 531 192Q484 97 422 44Q360-9 295-9Q157-11 175 199Q264 229 293 281Q314 316 287 330Q284 332 280 333Q249 344 203.50 307.50Q158 271 145 220Q105 73 92 11Q86 0 52.50-6Q19-12-12.50-6Q-44 0-43 17Q35 326 144 678Q155 694 212.50 686.50Q270 679 271 656Q191 389 179 344Q230 402 299.50 420Q369 438 403 408Q428 388 431 354.50Q434 321 418.50 287Q403 253 366 222.50Q329 192 279 179Q277 71 334 70Q422 67 493 214Z"  horiz-adv-x="482" vert-adv-y="1000"  />

      
      <glyph glyph-name="uni6c" unicode="&#x6c;" d="M209 668Q247 691 287.50 690.50Q328 690 356.50 667.50Q385 645 398.50 603.50Q412 562 396 503Q372 412 304.50 342Q237 272 134 237Q98 75 191 69Q237 66 286.50 105Q336 144 371 214Q375 219 384.50 216Q394 213 402.50 205Q411 197 409 192Q384 143 361.50 109Q339 75 306.50 44Q274 13 232.50 0Q191-13 140-8Q71-1 38.50 46.50Q6 94 8.50 167.50Q11 241 30 336Q55 450 102 540.50Q149 631 209 668M283 601Q266 602 247.50 571.50Q229 541 207 486Q164 366 150 315Q187 337 220 380Q253 423 272 469Q286 503 293.50 533.50Q301 564 298.50 582.50Q296 601 283 601Z"  horiz-adv-x="361" vert-adv-y="1000"  />

      
      <glyph glyph-name="uni6d" unicode="&#x6d;" d="M565-9Q501-11 478 20.50Q455 52 467 110Q470 126 477.50 156.50Q485 187 495 225Q505 263 509 280Q516 300 512 317.50Q508 335 488 334Q467 333 439 308.50Q411 284 393 253Q390 240 334 11Q324-7 266-7Q208-7 202 15Q224 111 268 286Q273 303 269 318Q265 333 248 332Q206 330 151 252Q120 143 90 11Q86 2 64-2.50Q42-7 18.50-7Q-5-7-24 0.50Q-43 8-43 21Q18 250 66 416Q82 433 132.50 427.50Q183 422 190 399Q186 388 179.50 365Q173 342 170 334Q203 371 246.50 399Q290 427 329 427Q368 427 388 403.50Q408 380 403 339Q479 427 562 427Q679 427 646 295Q643 282 636.50 260Q630 238 624 218.50Q618 199 611.50 176.50Q605 154 601.50 135.50Q598 117 597.50 102Q597 87 602 79Q607 71 618 71Q643 71 680.50 112.50Q718 154 745 214Q749 219 758.50 216.50Q768 214 777 205.50Q786 197 783 192Q685-3 565-9Z"  horiz-adv-x="735" vert-adv-y="1000"  />

      
      <glyph glyph-name="uni6e" unicode="&#x6e;" d="M337 427Q393 426 411.50 389.50Q430 353 415 290Q410 270 394 218Q378 166 372 141Q357 71 386 71Q415 71 451.50 113Q488 155 514 214Q519 219 528.50 216.50Q538 214 546.50 205.50Q555 197 553 192Q536 157 515.50 126Q495 95 467.50 63Q440 31 405 11.50Q370-8 333-9Q270-10 247.50 21.50Q225 53 238 110Q242 129 259 200.50Q276 272 278 279Q285 301 281 317Q277 333 256 332Q213 329 154 259Q134 191 90 10Q81-8 21.50-7Q-38-6-43 17Q-11 148 67 416Q82 432 130.50 427.50Q179 423 190 400Q174 344 171 334Q265 428 337 427Z"  horiz-adv-x="505" vert-adv-y="1000"  />

      
      <glyph glyph-name="uni6f" unicode="&#x6f;" d="M267 427Q353 427 394 375.50Q435 324 428 250Q421 176 376 102Q468 93 521 214Q525 219 535 216.50Q545 214 554 206Q563 198 560 192Q536 142 506.50 110.50Q477 79 448.50 67.50Q420 56 389.50 52.50Q359 49 333 56Q261-10 160-10Q73-10 27.50 41.50Q-18 93 6 203Q28 306 101 366Q174 426 267 427M250 346Q215 345 186 303.50Q157 262 143 204Q112 70 180 70Q210 70 234 97Q221 119 234 141.50Q247 164 271 162Q284 196 290.50 228.50Q297 261 297 288Q297 315 285 331Q273 347 250 346Z"  horiz-adv-x="511" vert-adv-y="1000"  />

      
      <glyph glyph-name="uni70" unicode="&#x70;" d="M336 424Q387 422 412.50 385Q438 348 437 297Q436 246 419.50 192.50Q403 139 376 102Q472 93 525 214Q529 219 539 216Q549 213 557.50 205Q566 197 564 192Q522 102 463 72.50Q404 43 341 56Q286 0 212-7Q138-14 89 28Q70-46 15-277Q5-295-54-292.50Q-113-290-114-270Q-24 97 65 415Q69 431 125 427.50Q181 424 189 398L173 354Q255 430 336 424M262 334Q241 335 211.50 320.50Q182 306 157 282Q147 248 131 188Q115 128 108 103Q131 75 170 72.50Q209 70 234 93Q216 115 232.50 141.50Q249 168 268 159Q288 202 295.50 241Q303 280 295 306Q287 332 262 334Z"  horiz-adv-x="515" vert-adv-y="1000"  />

      
      <glyph glyph-name="uni71" unicode="&#x71;" d="M254 426Q310 433 379 415Q448 397 487 355Q491 339 471.50 315Q452 291 437 293Q408 319 369.50 333.50Q331 348 296 347Q193 343 138 197Q104 106 131 80Q153 59 194 100Q221 126 244 170Q275 228 295 293Q305 304 330 303.50Q355 303 381.50 293Q408 283 409 271Q344 45 329-11Q338-2 389 43.50Q440 89 472 127Q504 165 527 214Q531 219 541 216.50Q551 214 559.50 206Q568 198 566 192Q556 170 543 148.50Q530 127 520 113Q510 99 492.50 78.50Q475 58 468.50 50.50Q462 43 442 22.50Q422 2 419-1Q382-41 364.50-61Q347-81 323.50-121Q300-161 288-204L273-275Q261-295 202-292.50Q143-290 142-270Q149-242 164-176.50Q179-111 187-78.50Q195-46 213 4.50Q231 55 254 98Q224 49 183.50 20Q143-9 102-10Q45-12 13.50 32Q-18 76-6 147Q12 261 88.50 338Q165 415 254 426Z"  horiz-adv-x="517" vert-adv-y="1000"  />

      
      <glyph glyph-name="uni72" unicode="&#x72;" d="M33 162Q28 156 18 158Q8 160-0.50 168Q-9 176-5 183Q55 302 81 398Q39 461 73 505Q98 536 133 532Q169 528 173 486Q175 469 169 446Q181 435 202 416.50Q223 398 237.50 385.50Q252 373 267.50 355.50Q283 338 289.50 323Q296 308 294 290Q292 272 279 255Q213 168 207 119Q204 97 213 84Q222 71 244 72Q283 72 330 106Q377 140 413 214Q417 219 426.50 216Q436 213 444.50 205Q453 197 451 192Q358-8 196-8Q134-9 102.50 20Q71 49 72 99Q72 128 86 164Q100 200 114 224Q128 248 153 286Q158 293 159.50 300Q161 307 159 314.50Q157 322 155.50 327Q154 332 147.50 340Q141 348 138.50 351Q136 354 128 362Q120 370 119 371Q91 268 33 162Z"  horiz-adv-x="402" vert-adv-y="1000"  />

      
      <glyph glyph-name="uni73" unicode="&#x73;" d="M168-12Q122-12 85 15.50Q48 43 42 93Q49 114 74.50 124.50Q100 135 115 126Q114 102 128.50 85.50Q143 69 165 69Q189 69 203 87Q184 105 190.50 130.50Q197 156 220 158Q219 199 200 277Q181 355 177 382Q113 318 33 162Q28 156 18 158Q8 160-0.50 168Q-9 176-5 183Q72 345 161 430Q209 477 265 472Q308 469 314 439Q318 417 298 390Q304 359 313.50 322.50Q323 286 330 263Q337 240 343.50 208.50Q350 177 349.50 156Q349 135 344 101Q425 105 475 214Q479 219 488.50 216Q498 213 506.50 205Q515 197 513 192Q444 49 321 51Q273-12 168-12Z"  horiz-adv-x="465" vert-adv-y="1000"  />

      
      <glyph glyph-name="uni74" unicode="&#x74;" d="M142-9Q98-9 68 5Q38 19 24.50 48Q11 77 6 108.50Q1 140 7 187.50Q13 235 21 273.50Q29 312 43 367L15 367Q1 375 6.50 406.50Q12 438 27 442L64 442Q110 590 138 668Q151 686 207 678.50Q263 671 267 647Q237 560 202 442L277 442Q292 429 287 401Q282 373 269 367L182 367Q151 262 143 224Q107 73 166 69Q205 68 251 104.50Q297 141 331 214Q335 219 344.50 216.50Q354 214 363 205.50Q372 197 369 191Q279-8 142-9Z"  horiz-adv-x="321" vert-adv-y="1000"  />

      
      <glyph glyph-name="uni75" unicode="&#x75;" d="M320 414Q330 431 382.50 426.50Q435 422 445 399Q441 382 431.50 350Q422 318 414 290.50Q406 263 397 229Q388 195 382.50 168.50Q377 142 374.50 119Q372 96 375 83.50Q378 71 388 71Q413 71 451 113Q489 155 515 213Q520 219 529.50 216.50Q539 214 547.50 205.50Q556 197 553 192Q450-9 334-7Q294-6 276.50 30.50Q259 67 271 116Q192-12 81-9Q17-9-3.50 31Q-24 71-11 131Q0 188 32 297Q64 406 66 413Q76 432 132 427Q188 422 190 400Q187 390 166 311.50Q145 233 135 189Q115 107 120 89Q124 74 140 74Q168 75 204.50 117Q241 159 261 215Q291 311 320 414Z"  horiz-adv-x="505" vert-adv-y="1000"  />

      
      <glyph glyph-name="uni76" unicode="&#x76;" d="M69 411Q85 431 136.50 427Q188 423 194 398Q187 373 170.50 319.50Q154 266 144 230.50Q134 195 125 155.50Q116 116 119.50 95Q123 74 138 73Q163 70 193 99Q177 123 195 147Q213 171 238 161Q268 213 289 283.50Q310 354 313 413Q321 424 349 427.50Q377 431 405.50 424Q434 417 439 399Q425 219 326 103Q441 82 502 213Q506 219 515.50 216.50Q525 214 534 206Q543 198 540 192Q513 137 480 104Q447 71 410.50 61Q374 51 345.50 51Q317 51 279 58Q196-10 98-9Q34-8 9 25Q-16 58-6 131Q-1 165 8.50 205Q18 245 25.50 271.50Q33 298 48 345.50Q63 393 69 411Z"  horiz-adv-x="492" vert-adv-y="1000"  />

      
      <glyph glyph-name="uni77" unicode="&#x77;" d="M357-8Q312-8 285 21Q258 50 264 105Q225 43 175 17Q125-9 79-8Q14-7-4 31Q-22 69-9 139Q4 208 67 410Q81 424 112.50 426.50Q144 429 169 419.50Q194 410 193 395Q136 207 125 156Q116 122 118 98.50Q120 75 140 74Q166 72 199.50 107.50Q233 143 257 205Q292 303 324 410Q338 430 391.50 426Q445 422 449 397Q392 236 380 183Q352 73 387 73Q414 73 439 101Q424 126 442 148.50Q460 171 484 160Q512 206 535 279.50Q558 353 559 412Q564 423 594 427Q624 431 653 424Q682 417 685 400Q683 324 650 239Q617 154 573 103Q686 80 749 214Q753 219 762.50 216Q772 213 780.50 205Q789 197 787 191Q761 137 728.50 104.50Q696 72 660.50 61Q625 50 594.50 50Q564 50 526 58Q457-10 357-8Z"  horiz-adv-x="738" vert-adv-y="1000"  />

      
      <glyph glyph-name="uni78" unicode="&#x78;" d="M536 213Q541 218 550 215Q559 212 567.50 204Q576 196 574 192Q537 113 485 60Q433 7 381-5Q300-22 260 40Q243 64 225 105L144 8Q126-12 66-10Q16-7 18 8Q19 11 22 14L180 202L153 279Q142 309 133 316Q124 323 112 307Q106 297 95 277Q84 257 66.50 224Q49 191 32 161Q28 157 18 159Q8 161-0.50 168.50Q-9 176-5 183Q10 211 35.50 263Q61 315 76 343Q91 371 115 396.50Q139 422 164 425Q219 433 247 386Q259 366 281 302L359 397Q379 421 441 413Q486 408 484 395Q484 393 482 391L324 201Q327 192 334 171Q341 150 347 137Q360 104 373 87Q386 70 402 71Q434 74 469 110.50Q504 147 536 213Z"  horiz-adv-x="526" vert-adv-y="1000"  />

      
      <glyph glyph-name="uni79" unicode="&#x79;" d="M103-296Q46-297 13-268Q-20-239-13-188Q-9-158 6.50-134Q22-110 41-94.50Q60-79 92.50-64.50Q125-50 149-43Q173-36 212-25Q229 19 253 99Q213 40 166.50 15Q120-10 76-8Q10-6-8.50 35Q-27 76-11 139Q1 189 28 281.50Q55 374 65 413Q77 431 130.50 426.50Q184 422 188 400Q149 253 125 153Q115 119 116.50 96Q118 73 139 74Q167 76 201 118.50Q235 161 257 217Q287 296 318 414Q334 433 386 426Q438 419 443 398Q442 394 336 11Q390 34 432 82Q474 130 515 214Q519 219 528.50 216.50Q538 214 547 206Q556 198 553 192Q500 86 447.50 30.50Q395-25 318-58Q277-197 234.50-246.50Q192-296 103-296M122-214Q158-206 178-153Q182-142 188-120.50Q194-99 195-94Q136-117 109-150Q89-173 92.50-195.50Q96-218 122-214Z"  horiz-adv-x="505" vert-adv-y="1000"  />

      
      <glyph glyph-name="uni7a" unicode="&#x7a;" d="M170 436Q212 374 317 397Q341 404 363 404Q385 404 399 397.50Q413 391 422.50 381Q432 371 431.50 358.50Q431 346 424 334Q323 179 230 84Q240 83 274.50 74Q309 65 333 67Q424 73 492 214Q496 219 505.50 216Q515 213 523.50 205Q532 197 530 192Q486 97 422 41Q358-15 288-17Q256-18 214.50-5Q173 8 144 6Q84-38 42-13Q13 5 20 39Q28 78 81 94Q209 223 264 314Q228 307 186.50 322.50Q145 338 124 369Q94 276 33 162Q28 156 18 158Q8 160-0.50 168Q-9 176-6 183Q62 320 88 408Q51 465 84 506Q107 534 138 529Q175 522 175 472Q175 456 170 436Z"  horiz-adv-x="482" vert-adv-y="1000"  />

      
      <glyph glyph-name="uni7b" unicode="&#x7b;" d="M300-146Q272-159 232.50-162.50Q193-166 156-151.50Q119-137 110-103Q93-43 112 41Q120 78 152 179Q158 199 143 211.50Q128 224 101 226Q87 227 84.50 245Q82 263 89.50 280.50Q97 298 109 299Q175 301 190 338Q201 362 223 473Q245 584 260 617Q284 671 344 687Q404 703 459 678Q472 670 471 652.50Q470 635 459.50 618.50Q449 602 438 603Q408 607 391 596Q374 585 361 554Q351 530 333.50 434Q316 338 305 313Q295 290 275 274Q255 258 234 257Q289 229 269 161Q265 145 251.50 103.50Q238 62 233 39Q211-49 240-71Q260-84 295-73Q313-73 314.50-104.50Q316-136 300-146Z"  horiz-adv-x="476" vert-adv-y="1000"  />

      
      <glyph glyph-name="uni7c" unicode="&#x7c;" d="M172-269Q165-292 116.50-295Q68-298 57-277Q54-271 56-264L290 676Q295 693 325 698.50Q355 704 381.50 695Q408 686 404 669L172-269Z"  horiz-adv-x="477" vert-adv-y="1000"  />

      
      <glyph glyph-name="uni7d" unicode="&#x7d;" d="M49-154Q36-146 37-128.50Q38-111 48.50-94.50Q59-78 70-79Q100-83 117.50-72Q135-61 147-30Q157-6 174.50 90Q192 186 203 211Q213 234 233.50 250Q254 266 275 267Q220 294 239 363Q244 381 257.50 422Q271 463 276 485Q296 572 268 595Q249 608 213 597Q195 597 194 628.50Q193 660 208 670Q236 683 275.50 686.50Q315 690 352.50 675.50Q390 661 399 627Q415 566 396 482Q389 452 356 344Q350 325 365.50 312.50Q381 300 407 298Q421 297 424 279Q427 261 419 243.50Q411 226 399 225Q333 223 318 186Q308 163 286 52Q264-59 248-94Q224-147 164-163Q104-179 49-154Z"  horiz-adv-x="503" vert-adv-y="1000"  />

      
      <glyph glyph-name="uni7e" unicode="&#x7e;" d="M333 237Q304 237 265 259Q226 281 207 281Q172 281 147 247Q141 242 129 246.50Q117 251 107 264Q97 277 101 286Q112 314 140.50 338Q169 362 207 363Q237 363 275 341Q313 319 333 319Q368 319 393 353Q399 358 410.50 353.50Q422 349 431.50 336.50Q441 324 437 315Q425 287 398 262.50Q371 238 333 237Z"  horiz-adv-x="521" vert-adv-y="1000"  />

      
      <glyph glyph-name="unia1" unicode="&#xa1;" d="M251 408Q277 408 294 390Q311 372 309 346Q307 321 287.50 303Q268 285 242 285Q215 285 199.50 303Q184 321 186 346Q189 372 207.50 390Q226 408 251 408M262 192Q251 153 202.50-29.50Q154-212 136-271Q130-291 96.50-294Q63-297 34-286Q5-275 10-260Q35-189 84.50-31Q134 127 158 196Q165 214 192.50 218Q220 222 242.50 213Q265 204 262 192Z"  horiz-adv-x="369" vert-adv-y="1000"  />

      
      <glyph glyph-name="unia2" unicode="&#xa2;" d="M476 188Q388 113 287 108Q281 85 272.50 47Q264 9 262 2Q259-10 239-14.50Q219-19 201.50-12Q184-5 188 11Q191 26 200.50 63.50Q210 101 213 113Q119 129 83 200Q47 271 71 351Q92 427 162 485Q232 543 315 547Q327 599 337 636Q343 659 376 661Q407 663 412 643Q413 639 412 633L391 545Q444 538 470 509Q496 480 495 446Q494 412 475 382Q459 355 419 357Q388 358 388 376Q388 380 390 384Q398 398 402 413Q406 428 399.50 444Q393 460 371 464Q365 439 341.50 339Q318 239 307 187Q387 185 447 233Q456 239 467 230.50Q478 222 481 209.50Q484 197 476 188M180 307Q172 214 233 196Q234 202 259 308.50Q284 415 296 465Q251 460 218.50 414.50Q186 369 180 307Z"  horiz-adv-x="530" vert-adv-y="1000"  />

      
      <glyph glyph-name="unia3" unicode="&#xa3;" d="M139-5Q123-18 104-16.50Q85-15 74.50-3.50Q64 8 61.50 24.50Q59 41 75 58Q114 99 132.50 153.50Q151 208 159 289L111 289Q96 289 91 306.50Q86 324 93 341.50Q100 359 114 359Q147 359 163 358Q170 507 217.50 586.50Q265 666 375 666Q462 666 508 610.50Q554 555 525 459Q519 438 482 434Q444 430 438 450Q437 455 438 461Q452 521 435.50 553.50Q419 586 375 582Q321 579 300 523Q279 467 276 357Q331 357 359 358Q372 358 375.50 341Q379 324 370.50 306.50Q362 289 347 288Q327 287 272 287Q260 180 217 96Q253 107 290 98Q301 96 326 89Q351 82 364 79.50Q377 77 397 76.50Q417 76 433.50 84Q450 92 466 108Q482 123 501.50 99.50Q521 76 511 60Q500 41 485.50 28.50Q471 16 459.50 9.50Q448 3 429 0Q410-3 401-3.50Q392-4 370.50-3.50Q349-3 344-3Q315-3 272 8Q229 19 198 18.50Q167 18 139-5Z"  horiz-adv-x="604" vert-adv-y="1000"  />

      
      <glyph glyph-name="unia4" unicode="&#xa4;" d="M222 564Q240 538 242 535Q290 556 345 555.50Q400 555 443 531Q460 548 473 564Q498 589 524 587.50Q550 586 567 566Q584 546 573 527Q559 513 511 459Q538 398 524 325Q510 252 462 197Q506 139 517 121Q529 103 512.50 81.50Q496 60 472 56Q448 52 430 71Q412 98 382 135Q337 110 284 105.50Q231 101 189 117Q181 107 166.50 90Q152 73 147 68Q129 46 102 53.50Q75 61 66 83Q57 105 71 128L108 174Q61 241 76.50 330Q92 419 156 480Q136 512 125 528Q111 548 136 572Q164 599 196 586Q211 579 222 564M341 467Q279 468 239.50 428.50Q200 389 188 323Q178 263 200 229Q222 195 264 194Q324 193 362.50 233Q401 273 413 338Q423 398 402.50 432Q382 466 341 467Z"  horiz-adv-x="648" vert-adv-y="1000"  />

      
      <glyph glyph-name="unia5" unicode="&#xa5;" d="M462 653Q477 669 500 665Q523 661 541.50 642.50Q560 624 550 609Q447 442 342 315L389 315Q401 315 404 298Q407 281 398.50 264Q390 247 374 247Q363 247 339 247.50Q315 248 303 248Q302 243 299.50 233.50Q297 224 295.50 217Q294 210 292 204Q302 204 314.50 204Q327 204 342 204Q357 204 364 204Q381 204 379 176Q377 145 356 137L348 136L276 136Q270 114 260.50 74Q251 34 247 16Q241-6 212.50-11.50Q184-17 160-8Q136 1 140 17Q148 49 168 137Q158 137 137 137.50Q116 138 105 138Q91 138 87 155Q83 172 90.50 188.50Q98 205 113 205Q125 205 148 204.50Q171 204 182 204L192 248Q150 250 126 250Q112 250 108.50 267Q105 284 113 300.50Q121 317 136 317Q154 316 189 316Q141 476 112 629Q111 646 136.50 657Q162 668 189.50 664Q217 660 220 639Q246 478 277 372Q334 446 462 653Z"  horiz-adv-x="548" vert-adv-y="1000"  />

      
      <glyph glyph-name="unia6" unicode="&#xa6;" d="M307 291Q302 271 271 264.50Q240 258 213.50 267Q187 276 191 293L288 677Q292 694 322.50 699Q353 704 380 695Q407 686 402 668L307 291M166-269Q162-286 131-292.50Q100-299 72.50-291Q45-283 50-264L147 121Q153 141 183.50 147Q214 153 240.50 144Q267 135 263 119L166-269Z"  horiz-adv-x="469" vert-adv-y="1000"  />

      
      <glyph glyph-name="unia7" unicode="&#xa7;" d="M286 696Q421 696 451 572Q451 558 435 548.50Q419 539 400 540Q381 541 374 553Q366 587 337 604Q308 621 281 611.50Q254 602 252 571Q251 549 270 526.50Q289 504 316.50 483Q344 462 371 438.50Q398 415 417 381.50Q436 348 435 310Q434 271 412 235Q390 199 350 177Q375 112 331.50 50.50Q288-11 208-10Q133-10 93.50 26.50Q54 63 52 130Q57 153 91 153.50Q125 154 133 132Q136 103 152.50 87.50Q169 72 194 72Q222 72 238.50 91Q255 110 255 143Q255 167 238.50 190.50Q222 214 198 234.50Q174 255 150.50 277.50Q127 300 111 331.50Q95 363 97 399Q99 432 119.50 460.50Q140 489 172 499Q146 535 150 582Q154 635 192.50 665.50Q231 696 286 696M230 446Q197 435 197 398Q197 376 215 352.50Q233 329 265 299Q297 269 310 252Q333 275 334 315Q334 342 315.50 369Q297 396 280.50 409Q264 422 230 446Z"  horiz-adv-x="523" vert-adv-y="1000"  />

      
      <glyph glyph-name="unia8" unicode="&#xa8;" d="M105 734Q75 734 60 752Q45 770 47 794Q50 817 68.50 835Q87 853 116 854Q144 854 159.50 835.50Q175 817 172 793Q170 770 151.50 752Q133 734 105 734M317 752Q317 752 307.50 743Q298 734 268 734Q238 734 223.50 752Q209 770 212 794Q214 817 232 835Q250 853 278 854Q309 854 323.50 836.50Q338 819 338 794Q336 770 317 752Z"  horiz-adv-x="380" vert-adv-y="1000"  />

      
      <glyph glyph-name="unia9" unicode="&#xa9;" d="M386-172Q226-174 135.50-76Q45 22 64 180Q82 331 196 440.50Q310 550 485 554Q649 557 742 457Q835 357 817 200Q809 127 777.50 62Q746-3 694-55.50Q642-108 562.50-139.50Q483-171 386-172M384-90Q520-90 603-8Q686 74 702 206Q716 330 660 400.50Q604 471 496 472Q362 473 280.50 388.50Q199 304 182 174Q166 54 225-17.50Q284-89 384-90M424 28Q359 30 319.50 71Q280 112 285 181Q291 261 349.50 316.50Q408 372 490 371Q537 370 559.50 346Q582 322 581 293.50Q580 265 564 243Q550 226 516 232Q491 237 493 252Q493 254 494 256Q505 270 503 288Q501 306 482 306Q452 306 424 270.50Q396 235 391 179Q387 137 408.50 113.50Q430 90 468 90Q511 90 546 115Q554 118 563.50 102Q573 86 568 79Q508 26 424 28Z"  horiz-adv-x="891" vert-adv-y="1000"  />

      
      <glyph glyph-name="uniab" unicode="&#xab;" d="M225 130Q205 150 160.50 192Q116 234 101 249Q82 268 80 287Q78 306 87.50 318.50Q97 331 112 340Q182 383 268 445Q289 460 311 448.50Q333 437 337 416.50Q341 396 325 381Q300 363 191 290Q206 274 246.50 233.50Q287 193 302 176Q312 165 299.50 146Q287 127 266 121Q245 115 225 130M467 130Q445 152 398 197Q351 242 343 249Q325 268 323 287Q321 306 330 318.50Q339 331 354 340Q414 377 511 445Q531 460 553 448.50Q575 437 579 416.50Q583 396 567 381Q542 363 433 290Q449 273 489.50 233Q530 193 545 176Q555 165 542 146Q529 127 508 121Q487 115 467 130Z"  horiz-adv-x="646" vert-adv-y="1000"  />

      
      <glyph glyph-name="uniac" unicode="&#xac;" d="M428 168Q424 151 386 153Q349 155 348 171L348 174L365 252L122 252Q106 252 101 272.50Q96 293 105 313.50Q114 334 132 334L423 334Q441 334 450.50 322.50Q460 311 455 291L428 168Z"  horiz-adv-x="539" vert-adv-y="1000"  />

      
      <glyph glyph-name="uniae" unicode="&#xae;" d="M388-172Q226-174 135.50-76Q45 22 64 180Q82 331 197 440.50Q312 550 490 554Q659 557 752 457Q845 357 827 200Q819 127 787 62Q755-3 702-55.50Q649-108 568-139.50Q487-171 388-172M386-90Q526-90 611-8Q696 74 712 206Q726 331 669.50 401Q613 471 501 472Q365 473 282 388Q199 303 182 174Q166 53 225-18Q284-89 386-90M466 20Q445 41 441 84Q437 127 442 157Q442 185 410 185Q404 165 395.50 130.50Q387 96 380 71.50Q373 47 369 36Q365 23 342 22.50Q319 22 300 32.50Q281 43 286 56Q301 95 322 177.50Q343 260 364 303Q409 395 503 392Q558 391 582 360.50Q606 330 596 289Q588 257 561 231.50Q534 206 505 198Q509 188 514.50 133Q520 78 538 55Q542 35 512 21.50Q482 8 466 20M421 229Q459 232 483 249.50Q507 267 514 290Q520 303 515.50 314Q511 325 495 326Q468 328 450.50 300.50Q433 273 421 229Z"  horiz-adv-x="901" vert-adv-y="1000"  />

      
      <glyph glyph-name="uniaf" unicode="&#xaf;" d="M59 744Q44 744 40 762.50Q36 781 44.50 798.50Q53 816 68 816Q206 814 281 815Q296 815 298.50 797.50Q301 780 293 762Q285 744 272 744L59 744Z"  horiz-adv-x="328" vert-adv-y="1000"  />

      
      <glyph glyph-name="unib0" unicode="&#xb0;" d="M237 670Q305 670 344.50 628.50Q384 587 375 527Q368 470 318 429Q268 388 202 388Q132 388 93 430Q54 472 63 532Q71 589 119.50 629.50Q168 670 237 670M230 593Q202 593 182 576Q162 559 157 533Q150 507 164 486.50Q178 466 208 466Q241 466 262 487.50Q283 509 284 538Q286 561 271 577Q256 593 230 593Z"  horiz-adv-x="448" vert-adv-y="1000"  />

      
      <glyph glyph-name="unib1" unicode="&#xb1;" d="M436 386Q454 386 460 365Q466 344 457.50 323.50Q449 303 431 303L320 303L299 229Q296 217 272.50 213Q249 209 228.50 215.50Q208 222 212 235L231 303L136 303Q120 303 115 323.50Q110 344 119 365Q128 386 146 386L254 386L278 470Q283 486 306.50 490Q330 494 349.50 485.50Q369 477 365 463L344 386L436 386M384 170Q402 170 408 149.50Q414 129 405.50 108.50Q397 88 379 88L83 87Q67 87 62.50 107.50Q58 128 67 149Q76 170 94 170L384 170Z"  horiz-adv-x="533" vert-adv-y="1000"  />

      
      <glyph glyph-name="unib2" unicode="&#xb2;" d="M87 392Q76 390 69 402Q62 414 63 429Q64 444 71 448Q162 506 181 572Q189 607 163 607Q152 608 144.50 599Q137 590 135 576Q133 565 115.50 562.50Q98 560 82 567Q66 574 68 587Q72 623 102 643.50Q132 664 172 665Q217 666 244 640Q271 614 265 567Q260 533 229.50 499.50Q199 466 165 450L249 450Q261 450 264.50 436Q268 422 263 408Q258 394 248 394L87 392Z"  horiz-adv-x="330" vert-adv-y="1000"  />

      
      <glyph glyph-name="unib3" unicode="&#xb3;" d="M178 666Q222 666 248.50 647.50Q275 629 273 597Q272 551 229 531Q271 511 266 464Q262 430 233 411Q204 392 158 392Q115 392 85.50 417.50Q56 443 64 482Q66 495 95 496Q124 497 125 481Q126 467 135 459Q144 451 158 451Q186 451 190 476Q192 490 184 497.50Q176 505 158 506Q147 507 143.50 520Q140 533 146.50 545.50Q153 558 165 558Q181 557 193 563.50Q205 570 205 582Q205 607 175 607Q148 603 138 581Q132 565 103.50 572Q75 579 80 599Q88 631 115.50 648Q143 665 178 666Z"  horiz-adv-x="336" vert-adv-y="1000"  />

      
      <glyph glyph-name="unib4" unicode="&#xb4;" d="M114 849Q130 871 173 862Q207 856 207 840Q207 836 203 831L121 735Q107 718 73 727Q43 734 48 753Q49 756 52 760L114 849Z"  horiz-adv-x="250" vert-adv-y="1000"  />

      
      <glyph glyph-name="unib6" unicode="&#xb6;" d="M678 680Q699 680 697 648Q695 615 674 605Q669 602 663 602L587 602L493 259Q474 189 455 144Q436 99 407.50 62.50Q379 26 339 9Q299-8 243-9Q188-10 150 6.50Q112 23 96.50 48.50Q81 74 78 104.50Q75 135 84.50 164Q94 193 111 216Q127 229 151.50 228.50Q176 228 195 214.50Q214 201 206 184Q183 139 194 104.50Q205 70 246 71Q283 71 307 114Q331 157 353 238L454 602L378 602L315 385Q289 294 208 302Q145 306 118.50 368.50Q92 431 113 516Q134 604 182.50 642Q231 680 318 680L678 680Z"  horiz-adv-x="691" vert-adv-y="1000"  />

      
      <glyph glyph-name="unib7" unicode="&#xb7;" d="M126 317Q100 317 82.50 335.50Q65 354 67 379Q69 405 88 422.50Q107 440 133 440Q160 440 176 422.50Q192 405 190 379Q188 353 169.50 335Q151 317 126 317Z"  horiz-adv-x="279" vert-adv-y="1000"  />

      
      <glyph glyph-name="unib8" unicode="&#xb8;" d="M164 43L229 36L168-47Q213-53 230.50-85Q248-117 230-151Q209-197 154.50-210.50Q100-224 34-183Q29-177 32-165.50Q35-154 44-144.50Q53-135 59-139Q88-157 114-157Q140-157 153-133Q164-116 155.50-100.50Q147-85 115-86Q102-86 97.50-77.50Q93-69 101-56L164 43Z"  horiz-adv-x="284" vert-adv-y="1000"  />

      
      <glyph glyph-name="unib9" unicode="&#xb9;" d="M178 655Q187 667 209.50 667Q232 667 250 658.50Q268 650 265 641Q224 515 204 409Q195 393 160.50 395Q126 397 125 417Q134 476 165 557Q132 525 103 514Q94 510 81.50 520.50Q69 531 65 543.50Q61 556 70 563Q135 600 178 655Z"  horiz-adv-x="328" vert-adv-y="1000"  />

      
      <glyph glyph-name="unibb" unicode="&#xbb;" d="M149 126Q129 111 107 122.50Q85 134 81 154.50Q77 175 93 190Q118 208 227 281Q211 298 170.50 338Q130 378 115 395Q105 406 118 425Q131 444 151.50 450.50Q172 457 193 442Q214 420 259 377.50Q304 335 317 322Q335 304 337 285Q339 266 330 253Q321 240 306 231Q246 194 149 126M392 126Q371 111 349 122.50Q327 134 323 154.50Q319 175 335 190Q360 208 469 281Q454 297 413.50 337.50Q373 378 358 395Q348 406 360.50 425.50Q373 445 394 451Q415 457 435 442Q456 420 501 377.50Q546 335 559 322Q573 308 578 294Q583 280 579 268Q575 256 567 247Q559 238 548 231Q478 188 392 126Z"  horiz-adv-x="646" vert-adv-y="1000"  />

      
      <glyph glyph-name="unibc" unicode="&#xbc;" d="M223 3Q209-16 164-4Q123 6 122 26Q121 33 126 39Q158 82 300.50 333.50Q443 585 496 653Q516 677 561 660Q595 648 598 628Q599 621 594 615Q542 551 404 305Q266 59 223 3M206 306Q203 291 161 291Q120 292 119 307Q119 309 119 310Q123 328 131 363.50Q139 399 143 415.50Q147 432 154 458.50Q161 485 170.50 508.50Q180 532 192 559Q155 509 108 493Q92 489 80 501Q68 513 67.50 527Q67 541 73 547Q163 594 206 654Q223 674 267 665Q296 658 294 646Q280 605 264 545Q248 485 227.50 397.50Q207 310 206 306M595 7Q593-7 554-7Q515-6 516 10L528 68L420 68Q398 68 389.50 90.50Q381 113 394 129L561 349Q566 356 577 359.50Q588 363 601 363.50Q614 364 626 362Q638 360 645 355Q652 350 651 343L614 123L651 123Q659 123 660 110Q661 97 654.50 84Q648 71 638 71L605 71L595 7M470 123L537 123L563 256L470 123Z"  horiz-adv-x="727" vert-adv-y="1000"  />

      
      <glyph glyph-name="unibd" unicode="&#xbd;" d="M221 3Q206-16 160-4Q120 7 119 26Q118 33 123 39Q154 82 297 333Q440 584 494 653Q513 677 557 661Q593 648 595 628Q596 621 591 615Q539 551 401 305Q263 59 221 3M204 306Q200 290 158 291Q116 294 116 310Q120 328 128 363.50Q136 399 140 415.50Q144 432 151 458.50Q158 485 167.50 508.50Q177 532 189 559Q152 509 105 493Q89 489 77 501Q65 513 64.50 527Q64 541 70 547Q162 595 203 654Q220 674 264 665Q293 658 291 646Q265 568 204 306M457-5Q437-6 435.50 23Q434 52 452 63Q548 123 589 230Q600 261 594.50 277Q589 293 573 294Q556 296 544.50 282Q533 268 533 241Q533 232 516.50 228.50Q500 225 483.50 231Q467 237 467 250Q464 305 500 335.50Q536 366 583 365Q623 364 651.50 338.50Q680 313 678 268Q677 211 641.50 156.50Q606 102 553 63L649 62Q662 62 666.50 45.50Q671 29 664.50 12.50Q658-4 645-4L457-5Z"  horiz-adv-x="744" vert-adv-y="1000"  />

      
      <glyph glyph-name="unibe" unicode="&#xbe;" d="M265 3Q250-16 204-4Q165 7 163 26Q162 33 167 39Q198 82 341 333Q484 584 538 653Q557 677 602 660Q637 648 640 628Q641 621 636 615Q583 550 445 304Q307 58 265 3M162 291Q117 293 89.50 321.50Q62 350 68 405Q69 417 87 420.50Q105 424 121.50 418Q138 412 136 399Q134 378 144 366Q154 354 169 354Q201 352 210 389Q218 419 205 435.50Q192 452 151 455Q140 455 137 468.50Q134 482 139.50 494.50Q145 507 154 507Q222 507 228 564Q229 582 221.50 592Q214 602 201 602Q186 603 174 590.50Q162 578 160 555Q160 548 143 544.50Q126 541 109.50 545Q93 549 93 560Q91 613 128.50 640.50Q166 668 215 667Q260 665 287 638.50Q314 612 311 570Q308 533 286 510.50Q264 488 234 484Q264 475 280 447Q296 419 290 383Q283 337 246 313Q209 289 162 291M636 7Q635-7 596-7Q558-5 558 10L569 68L461 68Q439 68 431 90.50Q423 113 436 129L602 349Q607 356 618 359.50Q629 363 642 363.50Q655 364 667 362Q679 360 686 355Q693 350 692 343L655 123L692 123Q705 123 700 98Q694 72 679 71L646 71L636 7M511 123L578 123L605 256L511 123Z"  horiz-adv-x="769" vert-adv-y="1000"  />

      
      <glyph glyph-name="unibf" unicode="&#xbf;" d="M284 390Q284 390 293.50 399Q303 408 328 408Q353 408 370 390Q387 372 385 346Q383 322 363.50 304Q344 286 319 286Q292 286 276 304Q260 322 263 347Q265 372 284 390M343 195Q342 149 322 112.50Q302 76 264 35Q256 26 234.50 3.50Q213-19 202-31.50Q191-44 177-63.50Q163-83 155.50-102.50Q148-122 146-143Q138-205 191-212Q226-218 254.50-188.50Q283-159 290-100Q292-81 317-74.50Q342-68 365.50-77.50Q389-87 388-106Q384-205 328.50-250.50Q273-296 184-293Q110-291 65.50-250.50Q21-210 26-141Q28-112 36.50-86.50Q45-61 64-36Q83-11 94.50 2Q106 15 135 42.50Q164 70 172 78Q195 102 207 116Q219 130 231 152.50Q243 175 245 198Q247 214 271.50 219.50Q296 225 319.50 218Q343 211 343 195Z"  horiz-adv-x="458" vert-adv-y="1000"  />

      
      <glyph glyph-name="unic0" unicode="&#xc0;" d="M696 879Q701 871 724 839Q747 807 758 790Q773 769 743 758Q712 748 693 761Q691 763 689 765L607 861Q593 877 624 889Q661 902 687 887Q693 884 696 879M234-9Q145-10 104 31.50Q63 73 75 145Q91 234 179.50 280.50Q268 327 386 318Q422 403 440 442.50Q458 482 490 535.50Q522 589 556 627Q599 673 655 686Q711 699 751.50 675.50Q792 652 796 602Q804 500 747 286Q850 289 895 333Q910 346 922.50 327Q935 308 926 298Q866 230 737 220Q704 87 694 19Q677-4 624-4Q571-4 557 19Q567 89 601 218Q577 220 483 229Q459 171 437 131.50Q415 92 385.50 58.50Q356 25 318.50 8.50Q281-8 234-9M617 291Q674 494 685 571Q689 597 675 601Q661 605 642 580Q587 509 513 302Q556 296 617 291M235 71Q269 72 294.50 111Q320 150 355 237Q301 239 259.50 215Q218 191 204 145Q194 119 201.50 94.50Q209 70 235 71Z"  horiz-adv-x="867" vert-adv-y="1000"  />

      
      <glyph glyph-name="unic1" unicode="&#xc1;" d="M726 879Q741 901 786 892Q821 886 822 870L818 861L736 765Q722 749 687 756Q659 763 660 779Q660 784 664 790Q675 807 698 839Q721 871 726 879M234-9Q145-10 104 31.50Q63 73 75 145Q91 234 179.50 280.50Q268 327 386 318Q422 403 440 442.50Q458 482 490 535.50Q522 589 556 627Q599 673 655 686Q711 699 751.50 675.50Q792 652 796 602Q804 500 747 286Q850 289 895 333Q910 346 922.50 327Q935 308 926 298Q866 230 737 220Q704 87 694 19Q677-4 624-4Q571-4 557 19Q567 89 601 218Q577 220 483 229Q459 171 437 131.50Q415 92 385.50 58.50Q356 25 318.50 8.50Q281-8 234-9M617 291Q674 494 685 571Q689 597 675 601Q661 605 642 580Q587 509 513 302Q556 296 617 291M235 71Q269 72 294.50 111Q320 150 355 237Q301 239 259.50 215Q218 191 204 145Q194 119 201.50 94.50Q209 70 235 71Z"  horiz-adv-x="867" vert-adv-y="1000"  />

      
      <glyph glyph-name="unic2" unicode="&#xc2;" d="M705 884Q720 894 744 893.50Q768 893 780 884Q790 876 808 857Q826 838 846.50 815Q867 792 871 788Q885 773 853 762Q816 749 797 761L793 764L736 823L656 761Q637 746 606 761Q578 776 588 795Q590 799 594 803Q624 829 705 884M234-9Q145-10 104 31.50Q63 73 75 145Q91 234 179.50 280.50Q268 327 386 318Q422 403 440 442.50Q458 482 490 535.50Q522 589 556 627Q599 673 655 686Q711 699 751.50 675.50Q792 652 796 602Q804 500 747 286Q850 289 895 333Q910 346 922.50 327Q935 308 926 298Q866 230 737 220Q704 87 694 19Q677-4 624-4Q571-4 557 19Q567 89 601 218Q577 220 483 229Q459 171 437 131.50Q415 92 385.50 58.50Q356 25 318.50 8.50Q281-8 234-9M617 291Q674 494 685 571Q689 597 675 601Q661 605 642 580Q587 509 513 302Q556 296 617 291M235 71Q269 72 294.50 111Q320 150 355 237Q301 239 259.50 215Q218 191 204 145Q194 119 201.50 94.50Q209 70 235 71Z"  horiz-adv-x="867" vert-adv-y="1000"  />

      
      <glyph glyph-name="unic3" unicode="&#xc3;" d="M764 764Q742 765 708.50 782Q675 799 661 799Q636 800 614 772Q609 766 595.50 772Q582 778 572 790Q562 802 566 811Q579 838 604.50 857.50Q630 877 663 877Q686 876 718 859Q750 842 766 842Q793 842 814 867Q819 873 831.50 866.50Q844 860 852 847.50Q860 835 856 827Q844 800 819.50 781.50Q795 763 764 764M234-9Q145-10 104 31.50Q63 73 75 145Q91 234 179.50 280.50Q268 327 386 318Q422 403 440 442.50Q458 482 490 535.50Q522 589 556 627Q599 673 655 686Q711 699 751.50 675.50Q792 652 796 602Q804 500 747 286Q850 289 895 333Q910 346 922.50 327Q935 308 926 298Q866 230 737 220Q704 87 694 19Q677-4 624-4Q571-4 557 19Q567 89 601 218Q577 220 483 229Q459 171 437 131.50Q415 92 385.50 58.50Q356 25 318.50 8.50Q281-8 234-9M617 291Q674 494 685 571Q689 597 675 601Q661 605 642 580Q587 509 513 302Q556 296 617 291M235 71Q269 72 294.50 111Q320 150 355 237Q301 239 259.50 215Q218 191 204 145Q194 119 201.50 94.50Q209 70 235 71Z"  horiz-adv-x="867" vert-adv-y="1000"  />

      
      <glyph glyph-name="unic4" unicode="&#xc4;" d="M645 756Q615 756 600 774Q585 792 586 816Q590 840 608 857.50Q626 875 655 876Q684 876 699.50 857.50Q715 839 712 815Q710 792 691.50 774Q673 756 645 756M856.50 774Q856.50 774 847.25 765Q838 756 808 756Q778 756 763.50 774.50Q749 793 752 816Q754 839 771.50 857Q789 875 818 876Q848 876 863 858Q878 840 877 816Q875 792 856.50 774M234-9Q145-10 104 31.50Q63 73 75 145Q91 234 179.50 280.50Q268 327 386 318Q422 403 440 442.50Q458 482 490 535.50Q522 589 556 627Q599 673 655 686Q711 699 751.50 675.50Q792 652 796 602Q804 500 747 286Q850 289 895 333Q910 346 922.50 327Q935 308 926 298Q866 230 737 220Q704 87 694 19Q677-4 624-4Q571-4 557 19Q567 89 601 218Q577 220 483 229Q459 171 437 131.50Q415 92 385.50 58.50Q356 25 318.50 8.50Q281-8 234-9M617 291Q674 494 685 571Q689 597 675 601Q661 605 642 580Q587 509 513 302Q556 296 617 291M235 71Q269 72 294.50 111Q320 150 355 237Q301 239 259.50 215Q218 191 204 145Q194 119 201.50 94.50Q209 70 235 71Z"  horiz-adv-x="867" vert-adv-y="1000"  />

      
      <glyph glyph-name="unic5" unicode="&#xc5;" d="M738 910Q783 909 807.50 884.50Q832 860 826 821Q822 783 792 760Q762 737 719 737Q675 737 650.50 762Q626 787 632 826Q636 863 666 886.50Q696 910 738 910M734 856Q704 856 696 823Q693 809 700.50 800Q708 791 723 791Q756 791 762 823Q767 856 734 856M234-9Q145-10 104 31.50Q63 73 75 145Q91 234 179.50 280.50Q268 327 386 318Q422 403 440 442.50Q458 482 490 535.50Q522 589 556 627Q599 673 655 686Q711 699 751.50 675.50Q792 652 796 602Q804 500 747 286Q850 289 895 333Q910 346 922.50 327Q935 308 926 298Q866 230 737 220Q704 87 694 19Q677-4 624-4Q571-4 557 19Q567 89 601 218Q577 220 483 229Q459 171 437 131.50Q415 92 385.50 58.50Q356 25 318.50 8.50Q281-8 234-9M617 291Q674 494 685 571Q689 597 675 601Q661 605 642 580Q587 509 513 302Q556 296 617 291M235 71Q269 72 294.50 111Q320 150 355 237Q301 239 259.50 215Q218 191 204 145Q194 119 201.50 94.50Q209 70 235 71Z"  horiz-adv-x="867" vert-adv-y="1000"  />

      
      <glyph glyph-name="unic6" unicode="&#xc6;" d="M872-29Q737-31 680 35Q669-6 666-24Q651-44 600.50-38.50Q550-33 544-11Q556 59 602 218Q583 219 537.50 223.50Q492 228 483 229Q459 171 437 131.50Q415 92 385.50 58.50Q356 25 318.50 8.50Q281-8 234-9Q145-10 104 31.50Q63 73 75 145Q91 234 179.50 280.50Q268 327 386 318Q436 435 474.50 506.50Q513 578 563 631Q604 674 657 686Q710 698 748.50 675Q787 652 791 602Q798 519 764 359Q812 384 864 384Q822 424 821 490.50Q820 557 854 594Q836 639 842 684Q843 699 865.50 698.50Q888 698 889 682Q889 651 897 631Q959 678 1056 673Q1116 669 1153.50 637.50Q1191 606 1187 556Q1183 507 1145 474.50Q1107 442 1053 438Q971 433 927 492Q919 446 940 412.50Q961 379 1002 369Q1012 361 1004.50 331Q997 301 982 297Q950 304 910.50 302Q871 300 835.50 292Q800 284 771.50 260.50Q743 237 733 202Q714 132 760 91Q806 50 884 52Q966 54 1036 96.50Q1106 139 1140 213Q1145 220 1154 217Q1163 214 1171.50 205.50Q1180 197 1178 193Q1132 89 1051.50 30.50Q971-28 872-29M617 291Q674 494 685 571Q689 597 675 601Q661 605 642 580Q587 509 513 302Q556 296 617 291M1031 510Q1083 513 1088 555Q1089 573 1072.50 584Q1056 595 1030 593Q980 591 952 554Q983 508 1031 510M235 71Q269 72 294.50 111Q320 150 355 237Q301 239 259.50 215Q218 191 204 145Q194 119 201.50 94.50Q209 70 235 71Z"  horiz-adv-x="1130" vert-adv-y="1000"  />

      
      <glyph glyph-name="unic7" unicode="&#xc7;" d="M655 214Q660 219 669.50 216.50Q679 214 687.50 205.50Q696 197 693 192Q647 98 582.50 49.50Q518 1 422-8L389-53Q434-59 451.50-91Q469-123 451-157Q430-203 375.50-216.50Q321-230 255-189Q250-183 252.50-171.50Q255-160 264-150.50Q273-141 280-145Q309-163 335-163Q361-163 373-139Q385-122 376.50-106.50Q368-91 336-92Q322-92 318-83.50Q314-75 322-62L356-8Q253 2 192 79Q131 156 140 283Q151 428 233 537Q190 608 185 672Q184 683 197.50 689Q211 695 226.50 691.50Q242 688 244 678Q252 631 278 587Q392 701 540 693Q625 689 665 639Q705 589 686 517Q674 470 635 436.50Q596 403 544 391Q492 379 428.50 391.50Q365 404 308 444Q270 358 272 271Q273 161 325 112Q377 63 459 72Q513 77 567 111.50Q621 146 655 214M519 611Q419 616 345 511Q384 483 432.50 476.50Q481 470 518.50 488.50Q556 507 564 546Q572 571 559.50 590.50Q547 610 519 611Z"  horiz-adv-x="646" vert-adv-y="1000"  />

      
      <glyph glyph-name="unic8" unicode="&#xc8;" d="M429 879Q434 871 457 839Q480 807 491 790Q506 769 476 758Q445 748 426 761L422 765L340 861Q326 877 357 889Q394 902 420 887L429 879M280 706Q282 670 292 646Q330 678 387.50 689.50Q445 701 496.50 691.50Q548 682 584 649.50Q620 617 618 568Q616 510 573.50 478.50Q531 447 460 449Q426 450 392 465Q358 480 337 502Q333 458 365.50 421.50Q398 385 458 377Q472 366 464.50 335.50Q457 305 439 302Q397 308 354.50 299.50Q312 291 276.50 262.50Q241 234 234 188Q227 147 247.50 119.50Q268 92 297.50 82.50Q327 73 362 72Q434 70 495 106.50Q556 143 592 214Q597 220 606 217Q615 214 623.50 205.50Q632 197 630 192Q584 92 506 42.50Q428-7 330-9Q294-10 259.50-3.50Q225 3 193 18.50Q161 34 138.50 56.50Q116 79 105 114Q94 149 100 191Q111 271 170.50 319Q230 367 305 371Q263 388 241.50 430.50Q220 473 223 520.50Q226 568 248 602Q228 645 228 704Q228 720 253 722Q278 724 280 706M357 568Q401 524 451 526Q475 525 488.50 537Q502 549 503 569Q504 595 476 606Q448 617 412 607Q376 597 357 568Z"  horiz-adv-x="582" vert-adv-y="1000"  />

      
      <glyph glyph-name="unic9" unicode="&#xc9;" d="M458 879Q473 901 518 892Q553 886 554 870L550 861L468 765Q454 749 419 756Q391 763 392 779Q392 784 396 790Q407 807 430 839Q453 871 458 879M280 706Q282 670 292 646Q330 678 387.50 689.50Q445 701 496.50 691.50Q548 682 584 649.50Q620 617 618 568Q616 510 573.50 478.50Q531 447 460 449Q426 450 392 465Q358 480 337 502Q333 458 365.50 421.50Q398 385 458 377Q472 366 464.50 335.50Q457 305 439 302Q397 308 354.50 299.50Q312 291 276.50 262.50Q241 234 234 188Q227 147 247.50 119.50Q268 92 297.50 82.50Q327 73 362 72Q434 70 495 106.50Q556 143 592 214Q597 220 606 217Q615 214 623.50 205.50Q632 197 630 192Q584 92 506 42.50Q428-7 330-9Q294-10 259.50-3.50Q225 3 193 18.50Q161 34 138.50 56.50Q116 79 105 114Q94 149 100 191Q111 271 170.50 319Q230 367 305 371Q263 388 241.50 430.50Q220 473 223 520.50Q226 568 248 602Q228 645 228 704Q228 720 253 722Q278 724 280 706M357 568Q401 524 451 526Q475 525 488.50 537Q502 549 503 569Q504 595 476 606Q448 617 412 607Q376 597 357 568Z"  horiz-adv-x="582" vert-adv-y="1000"  />

      
      <glyph glyph-name="unica" unicode="&#xca;" d="M438 884Q453 894 477 893.50Q501 893 513 884Q523 876 541 857Q559 838 579.50 815Q600 792 604 788Q618 773 586 762Q549 749 530 761L526 764L469 823L389 761Q370 746 339 761Q311 776 321 795Q323 799 327 803Q357 829 438 884M280 706Q282 670 292 646Q330 678 387.50 689.50Q445 701 496.50 691.50Q548 682 584 649.50Q620 617 618 568Q616 510 573.50 478.50Q531 447 460 449Q426 450 392 465Q358 480 337 502Q333 458 365.50 421.50Q398 385 458 377Q472 366 464.50 335.50Q457 305 439 302Q397 308 354.50 299.50Q312 291 276.50 262.50Q241 234 234 188Q227 147 247.50 119.50Q268 92 297.50 82.50Q327 73 362 72Q434 70 495 106.50Q556 143 592 214Q597 220 606 217Q615 214 623.50 205.50Q632 197 630 192Q584 92 506 42.50Q428-7 330-9Q294-10 259.50-3.50Q225 3 193 18.50Q161 34 138.50 56.50Q116 79 105 114Q94 149 100 191Q111 271 170.50 319Q230 367 305 371Q263 388 241.50 430.50Q220 473 223 520.50Q226 568 248 602Q228 645 228 704Q228 720 253 722Q278 724 280 706M357 568Q401 524 451 526Q475 525 488.50 537Q502 549 503 569Q504 595 476 606Q448 617 412 607Q376 597 357 568Z"  horiz-adv-x="582" vert-adv-y="1000"  />

      
      <glyph glyph-name="unicb" unicode="&#xcb;" d="M378 756Q348 756 333 774Q318 792 319 816Q323 840 341 857.50Q359 875 388 876Q417 876 432.50 857.50Q448 839 445 815Q443 792 424.50 774Q406 756 378 756M589.50 774Q589.50 774 580.25 765Q571 756 541 756Q511 756 496.50 774.50Q482 793 485 816Q487 839 504.50 857Q522 875 551 876Q581 876 596 858Q611 840 610 816Q608 792 589.50 774M280 706Q282 670 292 646Q330 678 387.50 689.50Q445 701 496.50 691.50Q548 682 584 649.50Q620 617 618 568Q616 510 573.50 478.50Q531 447 460 449Q426 450 392 465Q358 480 337 502Q333 458 365.50 421.50Q398 385 458 377Q472 366 464.50 335.50Q457 305 439 302Q397 308 354.50 299.50Q312 291 276.50 262.50Q241 234 234 188Q227 147 247.50 119.50Q268 92 297.50 82.50Q327 73 362 72Q434 70 495 106.50Q556 143 592 214Q597 220 606 217Q615 214 623.50 205.50Q632 197 630 192Q584 92 506 42.50Q428-7 330-9Q294-10 259.50-3.50Q225 3 193 18.50Q161 34 138.50 56.50Q116 79 105 114Q94 149 100 191Q111 271 170.50 319Q230 367 305 371Q263 388 241.50 430.50Q220 473 223 520.50Q226 568 248 602Q228 645 228 704Q228 720 253 722Q278 724 280 706M357 568Q401 524 451 526Q475 525 488.50 537Q502 549 503 569Q504 595 476 606Q448 617 412 607Q376 597 357 568Z"  horiz-adv-x="582" vert-adv-y="1000"  />

      
      <glyph glyph-name="unicc" unicode="&#xcc;" d="M539 879Q544 871 567 839Q590 807 601 790Q616 769 586 758Q555 748 536 761Q534 763 532 765L450 861Q436 877 467 889Q504 902 530 887Q536 884 539 879M475 670Q495 691 548.50 689.50Q602 688 611 667Q589 605 486 278Q472 234 466 214.50Q460 195 447 160.50Q434 126 425 110Q416 94 400.50 70Q385 46 369.50 35Q354 24 332.50 11.50Q311-1 285-5.50Q259-10 227-10Q173-10 133.50 11.50Q94 33 79 66.50Q64 100 64 136Q64 172 86.50 204Q109 236 148 250Q170 254 195.50 235Q221 216 219 195Q196 169 191.50 139.50Q187 110 200.50 90.50Q214 71 240 71Q250 71 258.50 75Q267 79 275 88Q283 97 289.50 106Q296 115 303.50 131.50Q311 148 316 160.50Q321 173 328 196Q335 219 339.50 233.50Q344 248 352 275.50Q360 303 365 318Q436 559 440 571Q417 545 382 527.50Q347 510 319 502.50Q291 495 267 479Q243 463 237 439Q222 384 269 374Q279 363 271 339Q263 315 246 311Q178 305 136 346Q94 387 106 445Q114 486 144 511Q174 536 216.50 549.50Q259 563 304 574.50Q349 586 396.50 609.50Q444 633 475 670Z"  horiz-adv-x="558" vert-adv-y="1000"  />

      
      <glyph glyph-name="unicd" unicode="&#xcd;" d="M568 880Q583 902 628 893Q663 887 664 871L660 862L578 766Q564 750 529 757Q501 764 502 780Q502 785 506 791Q517 808 540 840Q563 872 568 880M475 670Q495 691 548.50 689.50Q602 688 611 667Q589 605 486 278Q472 234 466 214.50Q460 195 447 160.50Q434 126 425 110Q416 94 400.50 70Q385 46 369.50 35Q354 24 332.50 11.50Q311-1 285-5.50Q259-10 227-10Q173-10 133.50 11.50Q94 33 79 66.50Q64 100 64 136Q64 172 86.50 204Q109 236 148 250Q170 254 195.50 235Q221 216 219 195Q196 169 191.50 139.50Q187 110 200.50 90.50Q214 71 240 71Q250 71 258.50 75Q267 79 275 88Q283 97 289.50 106Q296 115 303.50 131.50Q311 148 316 160.50Q321 173 328 196Q335 219 339.50 233.50Q344 248 352 275.50Q360 303 365 318Q436 559 440 571Q417 545 382 527.50Q347 510 319 502.50Q291 495 267 479Q243 463 237 439Q222 384 269 374Q279 363 271 339Q263 315 246 311Q178 305 136 346Q94 387 106 445Q114 486 144 511Q174 536 216.50 549.50Q259 563 304 574.50Q349 586 396.50 609.50Q444 633 475 670Z"  horiz-adv-x="558" vert-adv-y="1000"  />

      
      <glyph glyph-name="unice" unicode="&#xce;" d="M548 885Q563 895 587 894.50Q611 894 623 885Q633 877 651 858Q669 839 689.50 816Q710 793 714 789Q728 774 696 763Q659 750 640 762L636 765L579 824L499 762Q480 747 449 762Q421 777 431 796Q433 800 437 804Q467 830 548 885M475 670Q495 691 548.50 689.50Q602 688 611 667Q589 605 486 278Q472 234 466 214.50Q460 195 447 160.50Q434 126 425 110Q416 94 400.50 70Q385 46 369.50 35Q354 24 332.50 11.50Q311-1 285-5.50Q259-10 227-10Q173-10 133.50 11.50Q94 33 79 66.50Q64 100 64 136Q64 172 86.50 204Q109 236 148 250Q170 254 195.50 235Q221 216 219 195Q196 169 191.50 139.50Q187 110 200.50 90.50Q214 71 240 71Q250 71 258.50 75Q267 79 275 88Q283 97 289.50 106Q296 115 303.50 131.50Q311 148 316 160.50Q321 173 328 196Q335 219 339.50 233.50Q344 248 352 275.50Q360 303 365 318Q436 559 440 571Q417 545 382 527.50Q347 510 319 502.50Q291 495 267 479Q243 463 237 439Q222 384 269 374Q279 363 271 339Q263 315 246 311Q178 305 136 346Q94 387 106 445Q114 486 144 511Q174 536 216.50 549.50Q259 563 304 574.50Q349 586 396.50 609.50Q444 633 475 670Z"  horiz-adv-x="558" vert-adv-y="1000"  />

      
      <glyph glyph-name="unicf" unicode="&#xcf;" d="M488 756Q458 756 443 774Q428 792 429 816Q433 840 451 857.50Q469 875 498 876Q527 876 542.50 857.50Q558 839 555 815Q553 792 534.50 774Q516 756 488 756M699.50 774Q699.50 774 690.25 765Q681 756 651 756Q621 756 606.50 774.50Q592 793 595 816Q597 839 614.50 857Q632 875 661 876Q691 876 706 858Q721 840 720 816Q718 792 699.50 774M475 670Q495 691 548.50 689.50Q602 688 611 667Q589 605 486 278Q472 234 466 214.50Q460 195 447 160.50Q434 126 425 110Q416 94 400.50 70Q385 46 369.50 35Q354 24 332.50 11.50Q311-1 285-5.50Q259-10 227-10Q173-10 133.50 11.50Q94 33 79 66.50Q64 100 64 136Q64 172 86.50 204Q109 236 148 250Q170 254 195.50 235Q221 216 219 195Q196 169 191.50 139.50Q187 110 200.50 90.50Q214 71 240 71Q250 71 258.50 75Q267 79 275 88Q283 97 289.50 106Q296 115 303.50 131.50Q311 148 316 160.50Q321 173 328 196Q335 219 339.50 233.50Q344 248 352 275.50Q360 303 365 318Q436 559 440 571Q417 545 382 527.50Q347 510 319 502.50Q291 495 267 479Q243 463 237 439Q222 384 269 374Q279 363 271 339Q263 315 246 311Q178 305 136 346Q94 387 106 445Q114 486 144 511Q174 536 216.50 549.50Q259 563 304 574.50Q349 586 396.50 609.50Q444 633 475 670Z"  horiz-adv-x="558" vert-adv-y="1000"  />

      
      <glyph glyph-name="unid0" unicode="&#xd0;" d="M236-9Q157-10 112.50 21.50Q68 53 72 108Q77 164 121.50 192Q166 220 225.50 216Q285 212 335 181Q344 200 360 254L312 254Q300 260 302.50 284.50Q305 309 322 314L378 314Q435 510 491 557Q513 571 553 563Q593 555 592 539Q546 482 497 313L590 313Q602 308 597 283Q592 258 580 253Q580 252 529.50 252.50Q479 253 478 253Q451 164 429 126Q466 98 509.50 84Q553 70 588 75Q656 85 695 162.50Q734 240 736 355Q740 613 516 613Q456 613 402.50 583.50Q349 554 326.50 506.50Q304 459 330 400Q333 382 303.50 360.50Q274 339 246 350Q188 389 186 460Q184 531 235 586Q283 641 366 668.50Q449 696 539 694Q681 690 775 602Q869 514 865 355Q861 189 781 89.50Q701-10 580-8Q483-8 394 58Q336-8 236-9M226 69Q277 67 310 121Q266 146 236 146Q196 145 187 116Q178 89 202 75Q212 69 226 69Z"  horiz-adv-x="916" vert-adv-y="1000"  />

      
      <glyph glyph-name="unid1" unicode="&#xd1;" d="M747 764Q725 765 691.50 782Q658 799 644 799Q619 800 597 772Q592 766 578.50 772Q565 778 555 790Q545 802 549 811Q562 838 587.50 857.50Q613 877 646 877Q669 876 701 859Q733 842 749 842Q776 842 797 867Q802 873 814.50 866.50Q827 860 835 847.50Q843 835 839 827Q827 800 802.50 781.50Q778 763 747 764M755 694Q781 694 800.50 687.50Q820 681 833 672Q846 663 854 647.50Q862 632 866 617.50Q870 603 869.50 582Q869 561 867.50 546Q866 531 861 508.50Q856 486 852.50 473.50Q849 461 843.50 440.50Q838 420 836 414Q827 382 813.50 337Q800 292 791 261.50Q782 231 772.50 193.50Q763 156 760 130Q757 104 758.50 79Q760 54 771 36.50Q782 19 801 9Q819-9 790-49Q761-89 726-83Q701-78 682.50-67Q664-56 653-38Q642-20 634.50 0Q627 20 626.50 49.50Q626 79 627 104Q628 129 635 166.50Q642 204 648 231.50Q654 259 666 301Q678 343 686 370.50Q694 398 707 441Q740 546 736 578Q732 606 707 606Q652 606 580 517.50Q508 429 467 315Q445 245 424 173Q403 101 392.50 64.50Q382 28 375 12Q366-12 305.50-9.50Q245-7 242 20Q267 96 322.50 286Q378 476 408 571Q385 545 349.50 527Q314 509 285.50 501.50Q257 494 233 478.50Q209 463 204 440Q192 387 237 373Q244 369 244.50 355.50Q245 342 236 327Q227 312 214 311Q146 305 104 347Q62 389 74 447Q85 496 130.50 524.50Q176 553 229 563.50Q282 574 346 601.50Q410 629 447 675Q464 695 510.50 691Q557 687 562 665L518 524Q563 594 626 644.50Q689 695 755 694Z"  horiz-adv-x="889" vert-adv-y="1000"  />

      
      <glyph glyph-name="unid2" unicode="&#xd2;" d="M476 879Q481 871 504 839Q527 807 538 790Q553 769 523 758Q492 748 473 761L469 765L387 861Q373 877 404 889Q441 902 467 887L476 879M471 693Q544 690 592 657.50Q640 625 659.50 579.50Q679 534 682.50 476.50Q686 419 678 371Q670 323 656 279Q689 282 728.50 295Q768 308 794 325Q802 330 804 315Q805 288 793 276Q722 227 635 217Q595 118 517.50 55Q440-8 336-9Q201-9 149 80Q116 135 122 219.50Q128 304 171 357Q191 372 227 349.50Q263 327 257 307Q232 265 230.50 210.50Q229 156 257 113.50Q285 71 338 70Q447 69 505 224Q375 241 292.50 329Q210 417 230 533Q240 591 280.50 629.50Q321 668 370 682Q419 696 471 693M461 611Q418 613 390.50 589Q363 565 356 521Q345 450 392 381Q439 312 527 293Q536 329 542 374.50Q548 420 548 476.50Q548 533 526.50 571.50Q505 610 461 611Z"  horiz-adv-x="754" vert-adv-y="1000"  />

      
      <glyph glyph-name="unid3" unicode="&#xd3;" d="M505 880Q520 902 565 893Q600 887 601 871L597 862L515 766Q501 750 466 757Q438 764 439 780Q439 785 443 791Q454 808 477 840Q500 872 505 880M471 693Q544 690 592 657.50Q640 625 659.50 579.50Q679 534 682.50 476.50Q686 419 678 371Q670 323 656 279Q689 282 728.50 295Q768 308 794 325Q802 330 804 315Q805 288 793 276Q722 227 635 217Q595 118 517.50 55Q440-8 336-9Q201-9 149 80Q116 135 122 219.50Q128 304 171 357Q191 372 227 349.50Q263 327 257 307Q232 265 230.50 210.50Q229 156 257 113.50Q285 71 338 70Q447 69 505 224Q375 241 292.50 329Q210 417 230 533Q240 591 280.50 629.50Q321 668 370 682Q419 696 471 693M461 611Q418 613 390.50 589Q363 565 356 521Q345 450 392 381Q439 312 527 293Q536 329 542 374.50Q548 420 548 476.50Q548 533 526.50 571.50Q505 610 461 611Z"  horiz-adv-x="754" vert-adv-y="1000"  />

      
      <glyph glyph-name="unid4" unicode="&#xd4;" d="M485 885Q500 895 524 894.50Q548 894 560 885Q570 877 588 858Q606 839 626.50 816Q647 793 651 789Q665 774 633 763Q596 750 577 762L573 765L516 824L436 762Q417 747 386 762Q358 777 368 796Q370 800 374 804Q404 830 485 885M471 693Q544 690 592 657.50Q640 625 659.50 579.50Q679 534 682.50 476.50Q686 419 678 371Q670 323 656 279Q689 282 728.50 295Q768 308 794 325Q802 330 804 315Q805 288 793 276Q722 227 635 217Q595 118 517.50 55Q440-8 336-9Q201-9 149 80Q116 135 122 219.50Q128 304 171 357Q191 372 227 349.50Q263 327 257 307Q232 265 230.50 210.50Q229 156 257 113.50Q285 71 338 70Q447 69 505 224Q375 241 292.50 329Q210 417 230 533Q240 591 280.50 629.50Q321 668 370 682Q419 696 471 693M461 611Q418 613 390.50 589Q363 565 356 521Q345 450 392 381Q439 312 527 293Q536 329 542 374.50Q548 420 548 476.50Q548 533 526.50 571.50Q505 610 461 611Z"  horiz-adv-x="754" vert-adv-y="1000"  />

      
      <glyph glyph-name="unid5" unicode="&#xd5;" d="M544 765Q522 766 488.50 783Q455 800 441 800Q416 801 394 773Q389 767 375.50 773Q362 779 352 791Q342 803 346 812Q359 839 384.50 858.50Q410 878 443 878Q466 877 498 860Q530 843 546 843Q573 843 594 868Q599 874 611.50 867.50Q624 861 632 848.50Q640 836 636 828Q624 801 599.50 782.50Q575 764 544 765M471 693Q544 690 592 657.50Q640 625 659.50 579.50Q679 534 682.50 476.50Q686 419 678 371Q670 323 656 279Q689 282 728.50 295Q768 308 794 325Q802 330 804 315Q805 288 793 276Q722 227 635 217Q595 118 517.50 55Q440-8 336-9Q201-9 149 80Q116 135 122 219.50Q128 304 171 357Q191 372 227 349.50Q263 327 257 307Q232 265 230.50 210.50Q229 156 257 113.50Q285 71 338 70Q447 69 505 224Q375 241 292.50 329Q210 417 230 533Q240 591 280.50 629.50Q321 668 370 682Q419 696 471 693M461 611Q418 613 390.50 589Q363 565 356 521Q345 450 392 381Q439 312 527 293Q536 329 542 374.50Q548 420 548 476.50Q548 533 526.50 571.50Q505 610 461 611Z"  horiz-adv-x="754" vert-adv-y="1000"  />

      
      <glyph glyph-name="unid6" unicode="&#xd6;" d="M425 756Q395 756 380 774Q365 792 366 816Q370 840 388 857.50Q406 875 435 876Q464 876 479.50 857.50Q495 839 492 815Q490 792 471.50 774Q453 756 425 756M636.50 774Q636.50 774 627.25 765Q618 756 588 756Q558 756 543.50 774.50Q529 793 532 816Q534 839 551.50 857Q569 875 598 876Q628 876 643 858Q658 840 657 816Q655 792 636.50 774M471 693Q544 690 592 657.50Q640 625 659.50 579.50Q679 534 682.50 476.50Q686 419 678 371Q670 323 656 279Q689 282 728.50 295Q768 308 794 325Q802 330 804 315Q805 288 793 276Q722 227 635 217Q595 118 517.50 55Q440-8 336-9Q201-9 149 80Q116 135 122 219.50Q128 304 171 357Q191 372 227 349.50Q263 327 257 307Q232 265 230.50 210.50Q229 156 257 113.50Q285 71 338 70Q447 69 505 224Q375 241 292.50 329Q210 417 230 533Q240 591 280.50 629.50Q321 668 370 682Q419 696 471 693M461 611Q418 613 390.50 589Q363 565 356 521Q345 450 392 381Q439 312 527 293Q536 329 542 374.50Q548 420 548 476.50Q548 533 526.50 571.50Q505 610 461 611Z"  horiz-adv-x="754" vert-adv-y="1000"  />

      
      <glyph glyph-name="unid7" unicode="&#xd7;" d="M165 154Q155 147 135 160Q115 173 106 189.50Q97 206 106 216L224 298L146 365Q135 376 145 395Q155 414 173 422.50Q191 431 207 421L296 346L413 424Q428 433 449 420Q470 407 477.50 389Q485 371 476 361L363 287L435 225Q449 213 439.50 193Q430 173 411.50 165Q393 157 377 167L292 239L165 154Z"  horiz-adv-x="565" vert-adv-y="1000"  />

      
      </font>
</defs>
</svg>
